/* XPM */
static char *_b536390098b4f55d51083d57f4987c8r2svsOCeAhmtvYI1[] = {
/* columns rows colors chars-per-pixel */
"64 64 225 2 ",
"   c None",
".  c #0E0C0B",
"X  c #09080A",
"o  c #120D0A",
"O  c #16120E",
"+  c #1C120E",
"@  c #1B1514",
"#  c #151513",
"$  c #0B0D17",
"%  c #25160D",
"&  c #241A15",
"*  c #231B1C",
"=  c #2B1E1A",
"-  c #291913",
";  c #301E11",
":  c #2A231F",
">  c #352115",
",  c #3A2315",
"<  c #33221A",
"1  c #3B281E",
"2  c #2B2423",
"3  c #3C2B21",
"4  c #332A29",
"5  c #3C322B",
"6  c #383132",
"7  c #432B1D",
"8  c #4B2E1C",
"9  c #432615",
"0  c #52331D",
"q  c #5C381F",
"w  c #502F18",
"e  c #643C1B",
"r  c #432D22",
"t  c #492F20",
"y  c #443224",
"u  c #4A3324",
"i  c #4A382A",
"p  c #553622",
"a  c #533A26",
"s  c #5A3B24",
"d  c #523C2D",
"f  c #5B3E29",
"g  c #523728",
"h  c #463C37",
"j  c #523C30",
"k  c #603F27",
"l  c #5D422D",
"z  c #55412C",
"x  c #5C4533",
"c  c #58483A",
"v  c #4F4036",
"b  c #644226",
"n  c #63442C",
"m  c #6C4A2E",
"M  c #694529",
"N  c #724B2E",
"B  c #634631",
"V  c #664A33",
"C  c #6A4D36",
"Z  c #6B4D3B",
"A  c #704E31",
"S  c #6D523B",
"D  c #61513F",
"F  c #735236",
"G  c #73543B",
"H  c #7D5B3E",
"J  c #7B5538",
"K  c #75502E",
"L  c #54504E",
"P  c #585655",
"I  c #554A43",
"U  c #6B5747",
"Y  c #725540",
"T  c #745B43",
"R  c #7B5D43",
"E  c #7D5E4A",
"W  c #725C4B",
"Q  c #6C5D53",
"!  c #695E59",
"~  c #7C634B",
"^  c #76604E",
"/  c #6D625B",
"(  c #756659",
")  c #6B6766",
"_  c #786C66",
"`  c #7A7777",
"'  c #855C37",
"]  c #815D41",
"[  c #846345",
"{  c #82644B",
"}  c #84684D",
"|  c #8B6B4D",
" . c #8B6746",
".. c #936D48",
"X. c #9B6E42",
"o. c #98724A",
"O. c #846A54",
"+. c #8B6C52",
"@. c #826D5C",
"#. c #8A6D58",
"$. c #906F55",
"%. c #8D745C",
"&. c #8D7154",
"*. c #937355",
"=. c #95745B",
"-. c #9A7B5D",
";. c #997658",
":. c #A1764A",
">. c #A37C59",
",. c #8A786A",
"<. c #957B63",
"1. c #9C7D63",
"2. c #9A7D68",
"3. c #857C76",
"4. c #A17F63",
"5. c #B18659",
"6. c #9E8165",
"7. c #9E836B",
"8. c #968679",
"9. c #8E806E",
"0. c #A4846B",
"q. c #AA8A6C",
"w. c #A88566",
"e. c #B8946D",
"r. c #A48A72",
"t. c #AC8D72",
"y. c #A58673",
"u. c #B38E74",
"i. c #AF9178",
"p. c #B39376",
"a. c #BC9A74",
"s. c #B5967C",
"d. c #BC9B7D",
"f. c #B99778",
"g. c #B08B64",
"h. c #C69A67",
"j. c #C29D75",
"k. c #C4A27E",
"l. c #C9A476",
"z. c #8C8786",
"x. c #9C8E83",
"c. c #9A9089",
"v. c #BC9C83",
"b. c #B69983",
"n. c #AD9E96",
"m. c #BCA389",
"M. c #B5A799",
"N. c #9AACB4",
"B. c #B2ABA7",
"V. c #BFB3A5",
"C. c #A3B4BD",
"Z. c #A9B8BE",
"A. c #BBBAB9",
"S. c #AFA6A1",
"D. c #CA9F80",
"F. c #C3A485",
"G. c #C6A68B",
"H. c #C5A88B",
"J. c #CAAA8E",
"K. c #CBA985",
"L. c #D2AB80",
"P. c #C6AB94",
"I. c #CDB19A",
"U. c #CDB296",
"Y. c #D1B49A",
"T. c #D8B89B",
"R. c #D1B184",
"E. c #D6BBA3",
"W. c #C1BAB5",
"Q. c #E2C096",
"!. c #DCC3A8",
"~. c #CEC2B5",
"^. c #D8C8BB",
"/. c #E4C8B3",
"(. c #E7D4BF",
"). c #E5C8AC",
"_. c #9FB2C5",
"`. c #AAB9C2",
"'. c #A6B5C0",
"]. c #B1BEC5",
"[. c #AABDD6",
"{. c #C0BFC0",
"}. c #B5C2C9",
"|. c #BBC6CB",
" X c #AFC1DA",
".X c #B7CAE7",
"XX c #BED0EE",
"oX c #C8C7C7",
"OX c #D4CECD",
"+X c #DED2CA",
"@X c #C2CDD2",
"#X c #CAD4D9",
"$X c #D8DADB",
"%X c #EDDACB",
"&X c #E8D6C4",
"*X c #E5DDD6",
"=X c #F4DECD",
"-X c #E9E2DB",
";X c #F4E6DA",
":X c #F5E4C9",
">X c #C3D3EC",
",X c #D7DEE4",
"<X c #CCDCFD",
"1X c #C4D5F9",
"2X c #D1DFFD",
"3X c #DCE3E6",
"4X c #D4E1FD",
"5X c #DBE6FD",
"6X c #DEE8FD",
"7X c #E6EBED",
"8X c #E4E7E8",
"9X c #F0EBE5",
"0X c #F2EFED",
"qX c #F5F1EE",
"wX c #FCF5ED",
"eX c #E3ECFD",
"rX c #E8EDF5",
"tX c #EEF1F3",
"yX c #ECF2FE",
"uX c #F3F4F5",
"iX c #FBF9F6",
"pX c #F2F6FD",
"aX c #F6F9FF",
"sX c #FFFFFF",
"dX c #FAF6F2",
/* pixels */
"sXsXsXsXsXsXsXsXsXsXsXsXsXsXsXsXsXsXsXsXsXsXsXsXsXsXsXsXsXsXsXsXsXsXsXsXsXsXsXsXsXsXsXsXsXsXsXsXsXsXsXsXsXsXsXsXsXsXsXsXsXsXsXsX",
"sXsXsXsXsXsXsXsXsXsXsXsXsXsXsXsXsXsXsXsXsXsXsXsXsXsXsXsXsXsXsXsXsXsXsXsXsXsXsXsXsXsXsXsXsXsXsXsXsXsXsXsXsXsXsXsXsXsXsXsXsXsXsXsX",
"sXsXsXsXsXsXsXsXsXsXsXsXsXsXsXsXsXsXsXsXsXsXsXsXsX,X}.sXsXsXsXsXsXsXsXsXsXsXsXsXsXsXsXsXsXsXsXsXsXsXsXsXsXsXsXsXsXsXsXtXC.sXsXsX",
"sXsXsXsXsXsXsXsXsXsXsXsXsXsXsXsXsXsXsXsXsXsXsXsX#X@X3X].sXsXsXsXsXsXsXsXsXsXsXsXsXsXsXsXsXsXsXsXsXsXsXsXsXsXsXsXsXsX8X`.uXC.sXsX",
"sXsXsXsXsXsXsXsXsXsXsXsXsXsXsXsXsXsXsXsXsXsXsXsXuX@X}.tXsXsXsXsXsXsXsXsXsXsXsXsXsXsXsXsXsXsXsXsXsXsXsXsXsXsXsXsXsXsXdX,X`.7XsXsX",
"sXsXsXsXsXsXsXeXyXsXsXsXsXsXsXsXsXsXsXsXsXsXsXsXsXuX7XsXsXsXsXsXsXsXsXsXsXsXsXsXsXyXeXsXsXsXsXsXsXsXsXsXsXsXsXsXsXsXsXsX8XsXsXsX",
"sXsXsXsXsXeXaX5X6XsXsXsXsXsXsXsXsXsXsXsXsXsXsXsXsXsXsXsXsXsXsXsXsXsXsXsXsXsXsXyXyXyX4XsXsXsXsXsXsXsXsXsXsXsXsXsXsXsXsXsXsXsXsXsX",
"sXsXsXsXsX2XyX6X6XsXsXsXsXsXsXsXsXsXsXsXsXsXsXsXsXsXsXsXsXsXsXsXsXsXsXsXsXsXsX5X6XyX2XsXsXsXsXsXsXsXsXsXsXsXsXsXsXsXsXsXsXsXsXsX",
"sXsXsXsXsX<XyXyXpXsXsXsXsXsXsXsXsXsXsXsXsXsXsXsXsXsXsXsXsXsXsXsXsXsXsXsXsXsXsX5X5XpXyXsXsXsXsXsXsXsXsXsXsXsXsXsXsXsXsXsXsXsXsXsX",
"sXsXsXsXsXyXpXsXsXsXsXsXsXsXsXsXsXsXsXsXsXsXsXsXsXsXsXsXsXsXsXsXsXsXsXsXsXsXsXyXyXsXsXsXsXsXsXsXsXsXsXsXsXsXsXsXsXsXsXsXsXsXsXsX",
"sXsXsXsXsXsXsXsXsXsXsXsXsXsXsXsXsXsXsXsXsXsXsXsXsXsXsXsXsXyXsXsXsXsXsXsXsXsXsXsXsXsXsXsXsXsXsXsXsXsXsXsXsXsXsXsXsXsXsXsXsXsXsXyX",
"sXsXsXsXsXsXsXsXsXsXsXsXsXsXsXsXsXsXsXsXsXsXsXsXsXsXsXsXeX4XyXsXsXsXsXsXsXsXsXsXsXsXsXsXsXsXsXsXsXsXsXsXsXsXsXsXsXsXsXsXsXsXyX4X",
"sXsXsXsXsXsXsXsXsXsXsXsXsXsXsXsXsXsXsXsXsXsXsXsXsXsXsXpX4XaX4XsXsXsXdXdXdXiXuXsXsXsXsXsXsXsXsXsXsXsXsXsXsXsXsXsXsXsXsXsXsXsX<XaX",
"sXsXsXsXsXsXsXsXsXsXsXsXsXsXsXsXsXsXsXsXsXsXsXsXsXsXsXsXaX4XsXsXiX-X=X%X%X&X&X;XsXsXsXsXsXsXsXsXsXsXsXsXsXsXsXsXsXsXsXsXsXsXsX<X",
"sXsXsXsXuXsXsXsXsXsXsXsXsXsXsXsXsXsXsXsXsXsXsXsXsXsXsXsXsXsXsXqX*X%X%X!.E.E.Y.T.&XsXsXsXsXsXsXsXsXsXsXsXsXsXsXsXsXsXsXsXsXsXsXsX",
"sXsXsXiXC.3XsXsXsXsXsXsXsXsXsXsXsXsXsXsXsXsXsXsXsXsXsXsXsXsX;X:X&X/.!.T.K.K.K.D.l.Q.qXsXsXsXsXsXsXsXsXsXsXsXsXsXsXsXsXsXsXsXsXsX",
"sXsXsXC.uX`.3XsXsXsXsXsXsXsXsXsXsXsXsXsXsXsXsXsXsXsXsX$XB.OX+XT.T.I.k.F.a.k.K.k.a.l.l.iXsXsXsXsXsXsXsXsXsXsXsXsXsXsXsXsXsXsXsXsX",
"sXsXsXiXC.3XsXsXsXsXsXsXsXsXsXsXsXsXsXsXsXsXsXsXsXsXsXOX/ Q x.q.G.J.a.e.L.l.l.R.l.g.h.(.sXsXsXsXsXsXsXsXsXsXsXsXsXsXsXsXsXsXsXsX",
"sXsXsXsXuXsXsXsXsXsXsXsXsXsXsXsXsXsXsXsXsXsXsXsXsXsXsXS.c o i 6.u.F.4...o.5.h.l.j.e.e.l.dXsXsXsXsXsXsXsXsXsXsXsXsXsXsXsXsXsXsXsX",
"sXsXsXsXsXsXsXsXsXsXsXsXsXsXsXsXsXsXsXsXsXsXsXsXsXsXsXh 1 < @ ~ w.#.E -.K K :.5.j.j.j.l.(.sXsXsXsXsXsXsXsXsXsXsXsXsXsXsXsXsXsXsX",
"sXsXsXsXsXsXsXsXsXsXsXsXsXsXsXsXsXsXsXsXsXsXsXsXsXsXsXdX2 5 : } ;.q j ! c a e  .g.a.K.U.!.sXsXsXsXsXsXsXsXsXsXsXsXsXsXsXsXsXsXsX",
"5XsXsXsXsXsXsXsXsXsXsXsXsXsXsXsXsXsXsXsXsXsXsXsXiX;X:XwXB.5 h ~ ..k 2 $ $ v { [  .*.7.r.m.;XsXsXsXsXsXsXsXsXsXsXsXsXsXsXsXsXsXsX",
"<XsXsX6XaXsXsXsXsXsXsXsXsXsXsXsXsXsXsXsXsXeXuX;X&X/.E././.<.@.| *.w.c $ # ^ -.R [ S ( &.=.m.qXsXsXsXsXsXsXsXsXyXyXsXsXsXsXsXsXsX",
"<X@X6X<XpXsXsXsXsXsXsXsXsXsXsXsXsXsXsXsXsX,X/./.E.I.E.E.j.v.t.| 4.2.O.p V %.T } ~ S ~ ~ v S ~.sXsXsXsXsXsXsXsX6X4XsXsXsXsXsXsXsX",
"[.[.<X[.tXsXsXsXsXsXsXsXsXsXsXsXsXsXsXsXwX).E.U.J.J.G.G.j.H.0.-.4.@.2.2.0.+.O.%.~ B S 3 @ j V.sXsXsXsXsXsXsXsXeX5XaXyXsXsXsXsXsX",
"|..X X}.uXsXsXsXsXsXsXsXsXsXsXsXsXsXsXsX).P.v.v.F.J.P.I.k.v.q.6.=.2.y.4.1.0.0.O.G f l 5 4 v m.sXsXsXsXsXsXsXsX6X6XpX<XsXsXsXsXsX",
"sX|.].sXsXsXsXsXsXsXsXsXsXsXsXsXsXsXsX-XG.G.F.v.D.b.n.b.F.d.p.+.} <.4.$.i.s.<.G G a Y c 1 c V.sXsXsXsXsXsXsXsXyXyXyX2XsXsXsXsXsX",
"sXsXsXsXsXsXsXsXsXsXsXsXsXsXsXsXsXsXsXU.v.G.d.u.f.y.4.b.G.p.q.1.$. .| | 7.=.{ G C u S U r U OXsXsXsXsXsXsXsXsXsXsXyXeXsXsXsXsXsX",
"sXsXsXsXsXsXsXsXsXsXsXsXsXsXsXsXsXsX%XU.G.p.v.p.q.-.2.y.s.s.0.q.+.' [ | | +.J V n f S f 1 9.qXsXsXsXsXsXsXsXsXsXsXsXsXsXsXsXsXsX",
"sXsXsXsXsXsXsXsXsXsXsXsXsXsXsXaXsXsXI.F.H.v.q.q.w.4.4.<.u.u.q.4.=.*.*.$.| R G C l G C 7 l 9XsXsXsXaXsXsXsXsXsXsXsXsXsXsXsXsXsXsX",
"sXsXsXsXsXsXsXsXsXsXsXsXsXsXpX<XsXdXH.v.p.s.p.f.=.=.4.=.1.q.p.y.r.0.=.| E J G B b V 0 T 8XsXsXsXsX<XpXsXsXsXsXsXsXsXsXsXsXsXsXsX",
"sXsXsXsXsXsXsXsXsXsXsXsXsXaX<XsX<X%XF.s.p.p.q.w.=.=.=.] $.-.-.t.r.r.<.~ S A V k s q b qXsXsXsXsX<XsX<XpXsXsXsXsXsXsXsXsXsXsXsXsX",
"sXsXsXsXsXsXsXsXsXsXsXsXsXsXaX<XsX!.q.q.d.0.1.1.=.=.=.^ } | *.1.y.r.1.} S l t 7 0 q N qXsXsXsXsXsX<XpXsXsXsXsXsXsXsXsXsXsXsXsXsX",
"sXsXsXsXsXsXsXsXsXsXsXsXsXsXsXsXdXU.w.t.p.w.1.1.;.| +.#.G [ $.+.<.6.<.<.O.S 8 , , 9 N 9XsXsXsXsXsXsXsXsXsXsXsXsXsXsXsXsXsXsXsXsX",
"sXsXsXsXsXsXsXsXsXsXsXsXsXsXsXsX9XF.q.u.i.7.1.4.4.] O.] Y R ] O.} &.%.<.9.~ V s w w H qXsXsXsXsXsXsXsXsXsXsXsXsXsXsXsXsXsXsXsXsX",
"sXsXsXsXsXsXsXsXsXsXsXsXsXsXsXsX&Xe.4.s.p.1.1.1.<.] { ] Y G ' R ~ [ O.,.<.<.~ G n V &.sXsXsXsXsXsXsXsXsXsXsXsXsXsXsXsXsXsXsXsXsX",
"sXsXsXsXsXsXsXsXsXsXsXsXsXsXsXsX&X>.>.v.y.-.0.y.$.] +.] E T J F Y J ~ #.~ ~ O.T C C 0.sXsXsXsXsXsXsXsXsXsXsXsXsXsXsXsXuX].sXsXsX",
"sXsXsXsXsXsXsXsXsXsXsXsXsXsXsXsXaXb.;.f.p.b.0.4.=.] E { ~ U Y J F G E ~ T S S V n M m.sXsXsXsXsXsXsXsXsXsXsXsXsXsXsX7X}.3X}.sXsX",
"sXsXsXsXsXsXsXsXsXsXsXsXsXsXsXsXsX^...F.Y.I.u.$.O.] Y +.z : h c F G G G S l l s 0 b ~.sXsXsXsXsXsXsXsXsXsXsXsXsXsXsXtX#X@X#XsXsX",
"sXsXsXsXsXsXsXyXyXsXsXsXsXsXsXsXsX9X..v.G.m.G.>.Y { ] ] z h 4 : u C H Z n s 0 w 8 M ,XsXsXsXsXsXsXsXsXsXsXsXsXsXsXsXsXsX#XsXsXsX",
"sXsXsXsXsXyXaX5X6XsXsXsXsXsXsXsXsXsXo.a.v.v.i.t.] B Y ] %.Q 6 * * r x n l 0 0 0 w G 4XsXsXsXsXsXsXsXsXsXsXsXsXsXsXsXsXsXsXsXsXsX",
"sXsXsXsXsX<XpX6X6XsXsXsXsXsXsXsXsXsXq.w.e.q.r.t.} k j 1.q.#.v h 6 : = 3 t 7 9 0 p 9.4XsXsXsXsXsXsXsXsXsXsXsXsXsXsXsXsXsXsXsXsXsX",
"sXsXsXsXsX2XyXyXyXsXsXsXsXsXsXsXsXsXm.>.6...2.7.| f j R -.6.T / I 2 = & > ; , 9 s A.eXsXsXsXsXsXsXsXsXsXsXsXsXsXsXsXsXsXsXsXsXsX",
"sXsXsXsXsX6XyXsXsXsXsXsXsXsXsXsXsXsXP.:. . .*.1.} B y x | ;.-.&.! 6 * = , ; > 9 s 0XsXsXsXsXsXsXsXsXsXsXsXsXsXsXsXsXsXsXsXsXsXsX",
"sXsXsXsXsXsXsXsXsXsXsXsXsXsXsXsXsXsXP.:.'  ...&.E V t d ~ [ *.*.W h 4 y a > ; , @.sXsXsXsXsXsXsXsXsXsXsXsXsXsXsXsXsXsXsXsXsXsXaX",
"sXsXsXsXsXsXsXsXsXsXsXsXsXsXsXsXsXsXU.X.' ' ' [ G V r 7 S S S E { c 5 x z 1 ; > @.sXsXsXsXsXsXsXsXsXsXsXsXsXsXsXsXsXsXsXsXsXaX<X",
"sXsXsXsXsXsXsXsXsXsXsXsXsXsXsXsXsXsXk.X.' K H F G V t < d a l G G f x G a 7 , > d sXsXsXsXsXsXsXsXsXsXsXsXsXsXsXsXsXsXsXsXaX<XsX",
"sXsXsXsXsXsXsXsXsXsXsXsXsXsXsXsXsXsXa.X.K N A m G C u % 1 g V n f n T x 3 1 > @ O 8.*XsXsXsXsXsXsXsXsXsXsXsXsXsXsXsXsXsXsXsXsX<X",
"sXsXsXsXsXsXsXsXsXsXsXsXsXsXsXsXsXsXH.X.K M M m M C a % % 1 x p a l G a 3 y , : @ U ( N.sXsXsXsXsXsXsXsXsXsXsXsXsXsXsXsXsXsXsXsX",
"sXsXsXsXZ.7XsXsXsXsXsXsXsXsXsXsXsXsXE.o.N q k b b n r % + < 1 7 7 z C u u y 1 : I U x.c.sXsXsXsXsXsXsXsXsXsXsXsXsXsXsXsXsXsXsXsX",
"sXsXsX`.7X}.3XsXsXsXsXsXsXsXsXsXsXsXE.*.M k b q 0 7 , % % - - - < i 7 u 7 3 i i P L h n.sXsXsXsXsXsXsXsXsXsXsXsXsXsXsXsXsXsXsXsX",
"sXsXsX7X}.#XuXsXsXsXsXsXsXsXsXsXsXsX+X{ M M M s 8 < - @ + O + + @ O & > u u i c ( sXsXsXsXsXsXsXsXsXsXsXsXsXsXsXsXsXsXsXsXsXsXsX",
"sXsXsXsX8XaXsXsXsXsXsXsXsXsXsXsXsXsXsX~ m F V l r % O . o O X . . X . O 3 a x U Q x.*XiXsXsXsXsXsXsXsXsXsXsXsXsXsXsXsXsXsXsXsXsX",
"sXsXsXsXsXsXsXsXsXsXsXsXsXsXsXsXsXsXsX*XZ y = & # . # : O O # P P ` A.A.L x T _ ( ! 8.) iXsXsXsXsXsXsXsXsXsXsXsXsXsXsXsXsXsXsXsX",
"sXsXsXsXsXsXsXsXsXsXsXsXsXsXsXsXsXsXsXsXW._ {.$X8X$XoXz.@ ) oXsXsX6XsXsXsXB.^ ,.3.,.8.M.B.sXsXsXsXsXsXsXsXsXsXsXsXsXsXsXsXsXsXsX",
"eXsXsXsXsXsXsXsXsXsXsXsXsXsXsXsXsXsXsXsXsXsXsXsXsXsXsXsXOXtXsXsXsX<X6XaXsXsX,._ ! x.c.3.z.sXsXsXsXsXsXsXsXsXsXsXsXsXsXsXsXsXsXsX",
"1XsXsXyXsXsXsXsXsXsXsXsXsXsXsXsXsXsXsXsXsXyXaXsXsXsXsXsXsXsXsXsXsX<X1XaXsXyX8XA.$Xz._ 8XiXsXsXsXsXsXsXsXsXsXsXpXpXsXsXsXsXsXsXsX",
"<X,XyX<XpXsXsXsXsXsXsXsXsXsXsXsXsXsXsXsXsX4XeXsXsXsXsXsXsXsXsXsXsX6X<X,XrX2XeXsXsXuXOXsXsXsXsXsXsXsXsXsXsXsXsX5X4XsXsXsXsXsXsXsX",
".X_.1X.XyXsXsXsXsXsXsXsXsXsXsXsXsXsXsXsXsX4XyXaXaXsXsXsXsXsXsXsXsXsX>XC.XX.X7XsXsXsXqXsXsXsXsXsXsXsXsXsXsXsXsXeX6XsXpXsXsXsXsXsX",
"`.>X>XC.tXsXsXsXsXsXsXsXsXsXsXsXsXsXsXsXsX4XyX6X5XsXsXsXsXsXsXsXsXsX}..X>X`.,XsXsXsXsXsXsXsXsXsXsXsXsXsXsXsXsXeX6XyX<XsXsXsXsXsX",
"sXC.C.iXsXsXsXsXsXsXsXsXsXsXsXsXsXsXsXsXsX5XyX6X6XsXsXsXsXsXsXsXsXsXsX|.N.7XsXsXsXsXsXsXsXsXsXsXsXsXsXsXsXsXsXeXeXyX4XsXsXsXsXsX",
"sXsXsXsXsXsXsXsXsXsXsXsXsXsXsXsXsXsXsXsXsXsXsXeXeXsXsXsXsXsXsXsXsXsXsXsXsXsXsXsXsXsXsXsXsXsXsXsXsXsXsXsXsXsXsXsXsXyX5XsXsXsXsXsX",
"sXsXsXsXsXsXsXsXsXsXsXsXsXsXsXsXsXsXsXsXsXsXsXsXsXsXsXsXsXsXsXsXsXsXsXsXsXsXsXsXsXsXsXsXsXsXsXsXsXsXsXsXsXsXsXsXsXsXsXsXsXsXsXsX",
"sXsXsXsXsXsXsXsXsXsXsXsXsXsXsXsXsXsXsXsXsXsXsXsXsXsXsXsXsXsXsXsXsXsXsXsXsXsXsXsXsXsXsXsXsXsXsXsXsXsXsXsXsXsXsXsXsXsXsXsXsXsXsXsX",
};
