/* XPM */
static char *_d512b92229b409183c9fd82226be356EGariuVN6OJGKQkz[] = {
/* columns rows colors chars-per-pixel */
"64 64 231 2 ",
"   c None",
".  c #354048",
"X  c #37424A",
"o  c #414B53",
"O  c #515A61",
"+  c #4A6578",
"@  c #4B6679",
"#  c #4C677A",
"$  c #4D677A",
"%  c #4F697C",
"&  c #516B7D",
"*  c #70787E",
"=  c #556E80",
"-  c #566F81",
";  c #577082",
":  c #587183",
">  c #597283",
",  c #5C7485",
"<  c #5C7585",
"1  c #597388",
"2  c #5F7788",
"3  c #6D7884",
"4  c #617989",
"5  c #627A8A",
"6  c #637B8B",
"7  c #627B8F",
"8  c #647B8C",
"9  c #667D8D",
"0  c #4476C0",
"q  c #69808F",
"w  c #788085",
"e  c #7C8389",
"r  c #7F868B",
"t  c #6A8090",
"y  c #6B8191",
"u  c #6F8494",
"i  c #6F8594",
"p  c #708594",
"a  c #738897",
"s  c #788C9A",
"d  c #7A8E9C",
"f  c #7C909E",
"g  c #7D909E",
"h  c #7F929F",
"j  c #7F94A1",
"k  c #5280C5",
"l  c #6991CD",
"z  c #80878C",
"x  c #888F93",
"c  c #91979B",
"v  c #949A9E",
"b  c #8194A1",
"n  c #8698A5",
"m  c #8B9CA8",
"M  c #90A0AC",
"N  c #92A3AE",
"B  c #94A4AF",
"V  c #97A6B1",
"C  c #9CAAB5",
"Z  c #9CABB5",
"A  c #9EADB7",
"S  c #9EAFB6",
"D  c #A0AEB8",
"F  c #A3B0BA",
"G  c #A1B2BB",
"H  c #A2B3BD",
"J  c #A3B4BD",
"K  c #A5B5BE",
"L  c #A8B7BD",
"P  c #A9B6BF",
"I  c #A9B8BE",
"U  c #B8BCBE",
"Y  c #9EAFC2",
"T  c #9FB2C5",
"R  c #A6B5C0",
"E  c #A8B8C0",
"W  c #A9B8C1",
"Q  c #ABBBC2",
"!  c #ACBBC3",
"~  c #B0BEC6",
"^  c #B2BEC6",
"/  c #A9BCD3",
"(  c #ACBFD6",
")  c #88B6E2",
"_  c #89B7E2",
"`  c #8DB9E3",
"'  c #8FBBE4",
"]  c #91BBE4",
"[  c #94BDE5",
"{  c #95BEE5",
"}  c #96BEE6",
"|  c #97BFE6",
" . c #B3C0C8",
".. c #BAC5C9",
"X. c #BDC7CE",
"o. c #BEC8CD",
"O. c #99C0E6",
"+. c #A0C2E2",
"@. c #A0C5E8",
"#. c #A2C6E8",
"$. c #A4C7E9",
"%. c #ACCCEB",
"&. c #B5C7E1",
"*. c #B7C9E4",
"=. c #B5C9E8",
"-. c #B5D2EC",
";. c #B7D3ED",
":. c #B9D4EE",
">. c #BDD6EF",
",. c #B3E3EF",
"<. c #B4E3EF",
"1. c #B5E4EF",
"2. c #B7E5F0",
"3. c #B9E5F0",
"4. c #BDE7F1",
"5. c #C2CBD1",
"6. c #C2CDD0",
"7. c #C3CDD3",
"8. c #C8D0D6",
"9. c #CFD8DC",
"0. c #D0D7DC",
"q. c #D1D8DD",
"w. c #D3DBDF",
"e. c #C0D1EE",
"r. c #D6DCE0",
"t. c #D7DDE1",
"y. c #D7DEE2",
"u. c #D9DFE2",
"i. c #C2D3F2",
"p. c #C3DAF0",
"a. c #C4DBF1",
"s. c #C5D7FB",
"d. c #C7D9FC",
"f. c #C9DAFC",
"g. c #CBDBFC",
"h. c #C9DBFF",
"j. c #CADCFF",
"k. c #CCDCFC",
"l. c #CEDEFC",
"z. c #CEDEFF",
"x. c #CFDFFF",
"c. c #D0DEFC",
"v. c #D0DFFC",
"b. c #D1DFFC",
"n. c #D9E1E4",
"m. c #DBE2E5",
"M. c #DCE1E5",
"N. c #C0E4F4",
"B. c #C2E5F4",
"V. c #C7E9F4",
"C. c #C8EBF3",
"Z. c #C8EBF4",
"A. c #CCECF4",
"S. c #CFEDF5",
"D. c #D0E2F4",
"F. c #D1E3F4",
"G. c #DBE9F6",
"H. c #D3E0FC",
"J. c #D7E3FD",
"K. c #D8E4FC",
"L. c #D8E4FD",
"P. c #DBE6FD",
"I. c #DBE7FD",
"U. c #DCE7FD",
"Y. c #DFE8F9",
"T. c #DEE8FD",
"R. c #DEE9FD",
"E. c #DFE9FD",
"W. c #D7F5F2",
"Q. c #DBF2F7",
"!. c #E0E5E9",
"~. c #E1E6E9",
"^. c #E5EAED",
"/. c #E6EBED",
"(. c #E8ECEF",
"). c #EAEDF0",
"_. c #E4EFF9",
"`. c #E5EFF9",
"'. c #E0E9FD",
"]. c #E1EAFD",
"[. c #E2EBFD",
"{. c #E3EBFD",
"}. c #E4ECFD",
"|. c #E5EDFD",
" X c #E7EEFD",
".X c #E4EDFE",
"XX c #E6EEFE",
"oX c #ECF0F0",
"OX c #EDF0F2",
"+X c #EEF1F2",
"@X c #EBF1FB",
"#X c #EBF3FA",
"$X c #E8F6FA",
"%X c #EEF4FB",
"&X c #E9F0FE",
"*X c #EBF0FE",
"=X c #EBF1FE",
"-X c #EBF2FE",
";X c #EFF3FE",
":X c #EFF4FE",
">X c #EDFDFB",
",X c #F2F4F5",
"<X c #F2F4F6",
"1X c #F3F5F6",
"2X c #F4F6F7",
"3X c #F0F4F9",
"4X c #F5F7F8",
"5X c #F0F4FE",
"6X c #F0F5FE",
"7X c #F1F5FE",
"8X c #F3F6FE",
"9X c #F3F7FE",
"0X c #F3F7FF",
"qX c #F6F8F9",
"wX c #F5F9FD",
"eX c #F5F8FE",
"rX c #F6F8FF",
"tX c #F7FAFF",
"yX c #F8F9FA",
"uX c #FAFBFB",
"iX c #FBFBFB",
"pX c #FAFCFF",
"aX c #FBFCFF",
"sX c gray99",
"dX c #FCFDFD",
"fX c #FCFDFF",
"gX c #FDFEFF",
"hX c #FEFEFE",
"jX c #FEFEFF",
"kX c #FEFFFF",
"lX c white",
/* pixels */
"lXlXlXlXlXlXlXlXlXlXlXlXlXlXlXlXlXlXlXlXlXlXlXlXlXlXlXlXlXlXlXlXlXlXlXlXlXlXlXlXlXlXlXlXlXlXlXlXlXlXlXlXlXlXlXlXlXlXlXlXlXlXlXlX",
"lXlXlXlXlXlXlXlXlXlXlXlXlXlXlXlXlXlXlXlXlXlXlXlXlXlXlXlXlXlXlXlXlXlXlXlXlXlXlXlXlXlXlXlXlXlXlXlXlXlXlXlXlXlXlXlXlXlXlXlXlXlXlXlX",
"lXlXlXlXlXlXlXlXlXlXlXlXlXlXlXlXlXlXlXlXlXlXlXlXlXw.j A V M V m n n n f d f lXlXlXlXlXlXlXlXlXlXlXlXlXlXlXlXlXlXlXlXlXoXH lXlXlX",
"lXlXlXlXlXlXlXlXlXlXlXlXlXlXlXlXlXlXlXlXlX8.Z i + + ) ,.,.,.,.,.,.,.,.,.,.) + + t D m.lXlXlXlXlXlXlXlXlXlXlXlXlXlXlX!.Q 1XH lXlX",
"lXlXlXlXlXlXlXlXlXlXlXlXlXlXlXlXgXlX4XZ + ) ,.,.2.2.W.W.W.W.W.W.W.W.W.W.W.W.,.,.,.,.) 4 Z t.lXlXlXlXlXlXlXlXlXlXlXlXuXt.! (.lXlX",
"lXlXlXlXlXlXlX.X&XlXlXlXlXlXlXlXgXX.] ) ,.,.,.W.W.W.W.W.>X>X>X>X>X>X>X>XW.W.W.W.W.,.,.,.) ) , N lXlXlXlXlXlXlXlXlXlXlXsX!.lXlXlX",
"lXlXlXlXlX{.eXP.E.lXlXlXlXlXlXM.#.2.,.) ,.W.W.W.W.W.>X>X>X>X>X>X>X>X>X>X>X>XW.W.W.W.W.,.) ,.,.) + a lXlXlXlXlXlXlXlXlXlXlXlXlXlX",
"lXlXlXlXlXb.:XU.E.lXlXlXlX1X:.<.,.,.,.) W.W.W.W.W.>X>X>X>X>X>X>X>X>X>X>X>X>X>XW.W.W.W.W.) ,.,.,.,.) > w.lXlXlXlXlXlXlXlXlXlXlXlX",
"lXlXlXlXlXb.&X;X5XlXlXlXD.3.,.,.,.,.W.,.) ,.W.W.>X>X>X>X>X>X>X>X>X>X>X>X>X>X>X>XW.W.,.) ,.W.,.,.,.,.1.) P lXlXlXlXlXlXlXlXlXlXlX",
"lXlXlXlXlX X5XlXlXlXt.@.,.,.,.,.W.W.W.W.W.W.,.,.,.W.>X>X>X>X>X>X>X>X>X>X>X>XW.,.,.,.W.W.W.W.W.W.,.,.,.,.) b lXlXlXlXlXlXlXlXlXlX",
"lXlXlXlXlXlXlXlXlXM <.) ,.,.,.W.W.W.W.W.>X>X>X,.,.,.,.,.,.,.,.,.,.,.,.,.,.,.,.,.,.>X>X>XW.W.W.W.W.,.,.,.) ,.4 lXlXlXlXlXlXlXlX&X",
"lXlXlXlXlXlXlXlX^ ,.,.) ,.,.W.W.W.W.W.>X>X>XW.,.>X>X>X>X>X>X>X>X,.>X>X>X>X>X>X>X,.W.>X>X>XW.W.W.W.W.,.,.) ,.,.& lXlXlXlXlXlX&XJ.",
"lXlXlXlXlXlXlXlX| ,.,.,.) W.W.W.W.W.>X>X>X>X,.>X>X>X>X>X>X>X>X>X,.>X>X>X>X>X>X>X>X,.>X>X>X>XW.W.W.W.W.) ,.,.,.) s lXlXlXlXgXl.rX",
"lXlXlXlXlXlXlX5.<.,.,.,.,.) ,.W.W.>X>X>X>X>X,.>X>X>X>X>X>X>X>X>X,.>X>X>X>X>X>X>X>X,.>X>X>X>X>XW.W.,.) ,.,.,.,.,.+ lXlXlXlXlXlXb.",
"lXlXlXlX2XlXlX#.,.,.,.W.W.W.) W.>X>X>X>X>X,.W.>X>X>X>X>X>X>X>X>X,.>X>X>X>X>X>X>X>XW.,.>X>X>X>X>XW.) W.W.W.,.,.,.) - lXlXlXlXlXlX",
"lXlXlXuXK m.0.,.,.,.,.W.W.W.,.) >X>X>X>X>X,.>X>X>X>X>X>X>X>X>X>X,.>X>X>X>X>X>X>X>X>X,.>X>X>X>X>X) ,.W.W.W.,.,.,.,.+ lXlXlXlXlXlX",
"lXlXlXG 1X^ O.1.,.,.W.W.W.W.W.,.,.,.W.>X,.W.>X>X>X>X>X>X>X>X>X>X,.>X>X>X>X>X>X>X>X>XW.,.>XW.,.,.,.W.W.W.W.W.,.,.,.) + lXlXlXlXlX",
"lXlXlXuXK 6.) <.,.,.W.W.W.W.,.W.>XW.,.,.,.>X>X>X>X>X>X>X>X>X>X>X,.>X>X>X>X>X>X>X>X>X>X,.,.,.W.>XW.,.W.W.W.W.,.,.,.) + lXlXlXlXlX",
"lXlXlXlX2X-.) <.,.,.W.W.W.W.,.>X>X>X>X>XW.,.,.,.,.W.>X>X>X>X>X>X,.>X>X>X>X>XW.,.,.,.,.W.>X>X>X>X>X,.W.W.W.W.,.,.,.) ) 8 lXlXlXlX",
"lXlXlXlXoX1.) <.,.W.W.W.W.,.>X>X>X>X>X>X>X>X>XW.,.,.,.,.,.,.,.,.,.,.,.,.,.,.,.,.W.>X>X>X>X>X>X>X>X>X,.W.W.W.W.,.,.) ,.+ lXlXlXlX",
"lXlXlXlXD ,.,.) ,.W.W.W.W.,.>X>X>X>X>X>X>X>X>X>X,.>X>X>X>X>X>X>X>X>X>X>X>X>X>X,.>X>X>X>X>X>X>X>X>X>X,.W.W.W.W.,.) ,.,.+ lXlXlXlX",
"P.lXlXqX] ,.,.,.) W.W.W.,.W.>X>X>X>X>X>X>X>X>X>X,.>X>X>X>X>X>X>X>X>X>X>X>X>X>X,.>X>X>X>X>X>X>X>X>X>XW.,.W.W.W.) ,.,.,.) i lXlXlX",
"f.lXlXY ) ,.,.,.,.) W.W.,.>X>X>X>X>X>X>X>X>X>XW.,.>X>X>X>X>X>X>X>X>X>X>X>X>X>X,.W.>X>X>X>X>X>X>X>X>X>X,.W.W.) ,.,.,.,.) + lXlXlX",
"z.6.Y.1 ,.,.,.,.W.,.) ,.W.>X>X>X>X>X>X>X>X>X>X,.W.>X>X>X>X>X>X>X>X>X>X>X>X>X>XW.,.>X>X>X>X>X>X>X>X>X>XW.,.) ,.W.,.,.,.2.+ lXlXlX",
"/  .h.+ ,.,.,.,.W.W.,.) ,.>X>X>X>X>X>X>X>X>X>X,.>X>X>X>X>X>X>X>X>X>X>X>X>X>X>X>X,.>X>X>X>X>X>X>X>X>X>X,.) ,.W.W.,.,.,.,.+ lXlXlX",
"o.&.7 ) ,.,.,.W.W.W.W.>XW.,.,.>X>X>X>X>X>X>XW.,.>X>X>X>X>X>X>X>X>X>X>X>X>X>X>X>X,.W.>X>X>X>X>X>X>X,.,.W.>XW.W.W.W.,.,.,.) t lXlX",
"lX..1 ) ,.,.,.W.W.W.W.>X>X>XW.,.,.W.>X>X>X>X,.>X>X>X>X>X>X>X>X>X>X>X>X>X>X>X>X>X>X,.>X>X>X>XW.,.,.W.>X>X>XW.W.W.W.,.,.,.) t lXlX",
"lXgXq 2.) ,.,.W.W.W.>X>X>X>XW.,.W.,.,.,.W.>X,.>X>X>X>X>X>X>X>X>X>X>X>X>X>X>X>X>X>X,.>XW.,.,.,.W.,.W.>X>X>X>XW.W.W.,.,.) 2.4 lXlX",
"lXlX2 2.2.) ,.W.W.W.>X>X>X>X,.W.>X>X>XW.,.,.,.W.>X>X>X>X>X>X>X>X>X>X>X>X>X>X>X>XW.,.,.,.W.>X>X>XW.,.>X>X>X>XW.W.W.,.) ,.,.2 lXlX",
"lXlX2 ,.,.,.) W.W.W.>X>X>X>X,.>X>X>X>X>X>X>XW.,.,.,.,.,.,.,.,.,.,.,.,.,.,.,.,.,.,.W.>X>X>X>X>X>X>X,.>X>X>X>XW.W.W.) ,.,.,.; lXlX",
"lXlX2 ,.,.,.,.) W.W.>X>X>X>X,.>X>X>X>X>X>X>X>X>X>X>X>X>X>X>X>X,.>X>X>X>X>X>X>X>X>X>X>X>X>X>X>X>X>X,.>X>X>X>XW.W.) ,.,.,.,.= lXlX",
"lXlX2 ,.,.,.,.) ) W.>X>X>XW.,.>X>X>X>X>X>X>X>X>X>X>X>X>X>X>X>X,.>X>X>X>X>X>X>X>X>X>X>X>X>X>X>X>X>X,.W.>X>X>XW.) ) ,.,.,.,.% lXlX",
"lXlX- ,.,.,.,.) ,.) ) W.>X,.W.>X>X>X>X>X>X>X>X>X>X>XW.,.,.,.,.,.,.,.,.,.,.W.>X>X>X>X>X>X>X>X>X>X>XW.,.>XW.) ) ,.) ,.,.,.,.+ lXlX",
"lXlX= ,.,.,.,.) W.W.,.) ,.,.W.>X>X>X>X>X>X>X>X>X>XW.) ,.>X>X>X>X>XW.>X>X,.) W.>X>X>X>X>X>X>X>X>X>XW.,.,.) ,.W.W.) ,.,.,.,.+ lXlX",
"lXlX= ,.,.,.,.) W.W.>X>XW.,.,.>X>X>X>X>X>X>X>X>X,.) ,.>X>X>X>X>X>XW.>X>X>X,.) ,.>X>X>X>X>X>X>X>X>X,.,.W.>X>XW.W.) ,.,.,.,.+ lXlX",
"lXlX= ) ,.,.) ,.W.W.>X>X>X>XW.,.,.W.>X>X>X>X>X,.) ,.W.>X>X>X>X>X>XW.>X>X>XW.,.) ,.>X>X>X>X>XW.,.,.W.>X>X>X>XW.W.,.) ,.,.) + lXlX",
"lXlX+ 0 ,.,.) W.W.W.>X>X>X>X>X>X>X,.,.,.,.,.) 0 ,.W.W.W.W.W.W.W.W.W.W.W.W.W.W.,.0 ) ,.,.,.,.,.>X>X>X>X>X>X>XW.W.W.) ,.,.0 + lXlX",
"lXlX+ ) 0 ,.0 W.W.W.>X>X>X>X>X>X>X,.>X>XW.) 0 ) ,.W.,.>X>X>XW.>X>X>X>X>X>X,.W.,.) 0 ) W.>X>X,.>X>X>X>X>X>X>XW.W.W.0 ,.0 ) + lXlX",
"lXlX+ ) ) 0 0 W.W.W.>X>X>X>X>X>X>X,.>X>X>X) 0 ,.,.,.W.>X>X>XW.>X>X>X>X>X>XW.,.,.) 0 ) >X>X>X,.>X>X>X>X>X>X>XW.W.W.0 0 ) ) + lXlX",
"lXlX+ ) ) ) 0 W.W.W.>X>X>X>X>X>XW.,.>X>X>X0 ) ,.,.W.W.>X>X>XW.>X>X>X>X>X>XW.W.) ) ) 0 >X>X>X,.W.>X>X>X>X>X>XW.W.W.0 ) ) ) + lXlX",
"lXlXm ) ) ) ) ) ,.W.>X>X>X>X>X>X,.W.>X>X) 0 ,.) ,.W.W.>X>X>XW.>X>X>X>X>X>XW.W.,.) ) 0 ) >X>XW.,.>X>X>X>X>X>XW.,.) ) ) ) ) 9 lXlX",
"lXlXlX%.) ) ) ) ) ) W.>X>X>X>X>X,.>X>X>X) 0 ,.) ,.W.W.,.) ) ) ) ) ) ) ) ,.W.W.,.) ) 0 ) >X>X>X,.>X>X>X>X>XW.) ) ) ) ) ) @.lXlXlX",
"lXlXlXlX@.) ) ) ) ) 0 ,.W.>X>X>X,.>X>X>X+ ) ) ,.,.,.) ,.W.W.W.,.W.W.W.W.,.) ,.,.) ) 0 + >X>X>X,.>X>X>XW.,.0 ) ) ) ) ) %.lXlXlXlX",
"lXlXlXlXlX| ) ) ) ) 0 ) ) ) ,.>X,.>X>X>X+ ,.) ,.,.+ W.W.W.W.W.,.W.W.W.W.W.W.+ ,.) ) 0 + >X>X>X,.>X,.) ) ) 0 ) ) ) ) -.lXlXlXlXlX",
"lXlXlXlXlXlX| ) ) ) 0 ,.,.,.,.) ) ,.>X>X+ ,.) ,.+ W.W.W.W.W.W.2.W.W.W.W.W.W.W.+ ) ) 0 . >X>X,.) ) ,.,.,.,.0 ) ) ) p.lXlXlXlXlXeX",
"lXlXlXlXlXlXlX` ) ) 0 ,.,.,.,.,.,.) ) ) + ) ) + W.,.W.W.2.0 . . . . 0 ,.W.W.,.W.+ ) 0 . ) ) ) ,.,.,.,.,.,.0 ) ) D.lXlXlXlXlXeXz.",
"lXlXlXlXlXlXlX_.' ) 0 ,.,.,.,.,.,.,.) ) + ) + ) W.W.,.) . . . . . . . . ) ,.W.W.) + 0 . ) ) ,.,.,.,.,.,.,.0 _ G.lXlXlXlXlXgXk.lX",
"lXlXlXlXlXlXlXlXlXD.l ,.,.,.,.,.,.,.) ) + ) + W.W.W.) . . . . . . . . . . ) W.W.W.+ 0 . ) ) ,.,.,.,.,.,.,.k _.lXlXlXlXlXlXlXgXk.",
"lXlXlXlXlXlXlXlXlXlXlX_.A.1.<.,.,.,.) ) + + ) W.W.W.. . . . . . . . . . . . W.W.W.) + . ) ) ,.,.,.,.,.,.| lXlXlXlXlXlXlXlXlXlXlX",
"lXlXlXlXQ (.lXlXlXlXlXlXlXeXQ.4.,.,.) ) + + W.W.W.) . . . . . . . . . . . . ) W.W.W.+ . ) ) ,.,.,.,.) lXlXlXlXlXlXlXlXlXlXlXlXlX",
"lXlXlXE ). .n.lXlXlXlXlXlXlXlXlX$XC.) ) . + W.W.W.. . . . . . . . . . . . . . W.W.W.+ . ) ) 2.Z.a.lXlXlXlXlXlXlXlXlXlXlXlXlXlXlX",
"lXlXlX^.! 9.1XlXlXlXlXlXlXlXlXlXlXlX%X>.. + W.W.) . . . . . . . . . . . . . . ) W.W.+ O F.#XlXlXlXlXlXlXlXlXlXlXlXlXlXlXlXlXlXlX",
"lXlXlXlX!.uXlXlXlXlXlXlXlXlXlXlXlXlXlXlXo ) ,.,.. . . . . . . . . . . . . . . . ,.,.) * lXlXlXlXlXlXlXlXlXlXlXlXlXlXlXlXlXlXlXlX",
"lXlXlXlXlXlXlXlXlXlXlXlXlXlXlXlXlXlXlXlXo W.W.W.. . . . . . . . . . . . . . . . W.W.W.w lXlXlXlXlXlXlXlXlXlXlXlXlXlXlXlXlXlXlXlX",
"lXlXlXlXlXlXlXlXlXlXlXlXlXlXlXlXlXlXlXlXo W.W.W.. . . . . . . . . . . . . . . . W.W.W.e lXlXlXlXlXlXlXlXlXlXlXlXlXlXlXlXlXlXlXlX",
".XlXlXlXlXlXlXlXlXlXlXlXlXlXlXlXlXlXlXlXo W.W.W.. . . . . . . . . . . . . . . . W.W.W.r lXlXlXlXlXlXlXlXlXlXlXlXlXlXlXlXlXlXlXlX",
"f.lXlX&XgXlXlXlXlXlXlXlXlXlXlXlXlXlXlXlXo W.W.W.. . . . . . . . . . . . . . . . W.W.W.x lXlXlXlXlXlXlXlXlXlXlX5X:XlXlXlXlXlXlXlX",
"z.u. Xh.5XlXlXlXlXlXlXlXlXlXlXlXlXlXlXlXo ,.,.,.. . . . . . . . . . . . . . . . ,.,.,.x lXlXlXlXlXlXlXlXlXlXlXU.J.lXlXlXlXlXlXlX",
"&.R s.=.4XlXlXlXlXlXlXlXlXlXlXlXlXlXlXlXo ,.,.,.. . . . + + + + + + + + . . . . ,.,.,.c lXlXlXlXlXlXlXlXlXlXlX{.P.gX5XlXlXlXlXlX",
"R i.>.R ).lXlXlXlXlXlXlXlXlXlXlXlXlXlXlXo ,.,.,.. + + + + + + + + + + + + + + . ,.,.,.v lXlXlXlXlXlXlXlXlXlXlX{.E.;Xl.lXlXlXlXlX",
"lXK S sXlXlXlXlXlXlXlXlXlXlXlXlXlXlXlXlXz 4.V.N.3 w n n n n n n n n n i 4 h w w A.A.A.U lXlXlXlXlXlXlXlXlXlXlX.X{.;XH.lXlXlXlXlX",
"lXlXlXlXlXlXlXlXlXlXlXlXlXlXlXlXlXlXlXlXlXlXlX{.{.lXlXlXlXlXlXlXlXlXlXlXlXlXlXlXlXlXlXlXlXlXlXlXlXlXlXlXlXlXlXlXlX&XP.lXlXlXlXlX",
"lXlXlXlXlXlXlXlXlXlXlXlXlXlXlXlXlXlXlXlXlXlXlXlXlXlXlXlXlXlXlXlXlXlXlXlXlXlXlXlXlXlXlXlXlXlXlXlXlXlXlXlXlXlXlXlXlXlXlXlXlXlXlXlX",
"lXlXlXlXlXlXlXlXlXlXlXlXlXlXlXlXlXlXlXlXlXlXlXlXlXlXlXlXlXlXlXlXlXlXlXlXlXlXlXlXlXlXlXlXlXlXlXlXlXlXlXlXlXlXlXlXlXlXlXlXlXlXlXlX",
};
