/* XPM */
static char *_f44997c9a8d40cfb3daf00d643ca03eFFZO1PaPcr1EXS5a[] = {
/* columns rows colors chars-per-pixel */
"64 64 238 2 ",
"   c None",
".  c #010202",
"X  c #0A0D0C",
"o  c #0E110E",
"O  c #14140E",
"+  c #0E1113",
"@  c #141611",
"#  c #1A1B15",
"$  c #1D1E19",
"%  c #171814",
"&  c #310102",
"*  c #1F211A",
"=  c #22231C",
"-  c #2C291C",
";  c #3C321F",
":  c #1A1C24",
">  c #232524",
",  c #2A2B25",
"<  c #272A27",
"1  c #322F26",
"2  c #34342C",
"3  c #3C372D",
"4  c #2C3236",
"5  c #333431",
"6  c #3B3B34",
"7  c #393A39",
"8  c #2B2D31",
"9  c #490101",
"0  c #520000",
"q  c #780001",
"w  c #6B0102",
"e  c #433D33",
"r  c #483F36",
"t  c #443C2D",
"y  c #3F413D",
"u  c #4A4135",
"i  c #44423A",
"p  c #4C453A",
"a  c #4D493D",
"s  c #454238",
"d  c #534B3D",
"f  c #514639",
"g  c #674D3B",
"h  c #393B43",
"j  c #3D4147",
"k  c #434343",
"l  c #43444A",
"z  c #4B4B4C",
"x  c #494A46",
"c  c #544D42",
"v  c #5A4F42",
"b  c #584E49",
"n  c #5C5244",
"m  c #5C544A",
"M  c #55524B",
"N  c #535354",
"B  c #5C5B56",
"V  c #585758",
"C  c #4E5156",
"Z  c #625445",
"A  c #645B4C",
"S  c #6B5D4D",
"D  c #665748",
"F  c #645C54",
"G  c #6B5E52",
"H  c #625E5B",
"J  c #705E48",
"K  c #6C634D",
"L  c #6C6254",
"P  c #64625C",
"I  c #6D645B",
"U  c #6E685E",
"Y  c #736455",
"T  c #7C6B55",
"R  c #72665A",
"E  c #75695B",
"W  c #7A6C5C",
"Q  c #756855",
"!  c #766853",
"~  c #5B5E62",
"^  c #656463",
"/  c #6A6966",
"(  c #746C63",
")  c #7B6E62",
"_  c #746E69",
"`  c #7C7266",
"'  c #7D746B",
"]  c #777269",
"[  c #686B73",
"{  c #7B7876",
"}  c #5E6063",
"|  c #870202",
" . c #940101",
".. c #9C0101",
"X. c #9F1418",
"o. c #A50101",
"O. c #AB0102",
"+. c #A8040B",
"@. c #BA0101",
"#. c #AB0914",
"$. c #B61019",
"%. c #B41821",
"&. c #992833",
"*. c #AF2E33",
"=. c #C50102",
"-. c #D80107",
";. c #E20511",
":. c #CE313D",
">. c #DC394B",
",. c #83735D",
"<. c #8B775D",
"1. c #846D5B",
"2. c #B25064",
"3. c #837463",
"4. c #8C7C65",
"5. c #84766A",
"6. c #84796E",
"7. c #8B7B6B",
"8. c #887664",
"9. c #907E68",
"0. c #857C72",
"q. c #8A7E73",
"w. c #847E79",
"e. c #AF6A78",
"r. c #935C5C",
"t. c #CB4B58",
"y. c #CC5969",
"u. c #7E807F",
"i. c #97846B",
"p. c #8E8175",
"a. c #8C837A",
"s. c #84837E",
"d. c #938475",
"f. c #9D8B73",
"g. c #93857A",
"h. c #95897D",
"j. c #9A8A7B",
"k. c #998674",
"l. c #A4896E",
"z. c #A58D73",
"x. c #AA8F73",
"c. c #A18E7D",
"v. c #AC9276",
"b. c #A5917C",
"n. c #AD957B",
"m. c #A9957B",
"M. c #B2967B",
"N. c #B59A7D",
"B. c #B69979",
"V. c #BBA07F",
"C. c #C4A57E",
"Z. c #757A85",
"A. c #8A8A86",
"S. c #958B82",
"D. c #9B8E83",
"F. c #948A84",
"G. c #9C9288",
"H. c #9A9796",
"J. c #878D94",
"K. c #A39384",
"L. c #AB9985",
"P. c #AA9A8B",
"I. c #A69687",
"U. c #B59C83",
"Y. c #B99E82",
"T. c #B29D8A",
"R. c #AB9D90",
"E. c #A08F80",
"W. c #BCA285",
"Q. c #BFA48B",
"!. c #ABA197",
"~. c #B2A494",
"^. c #BA97A5",
"/. c #9DA8B1",
"(. c #A6B5BD",
"). c #B8B8B7",
"_. c #AFACAD",
"`. c #9399A2",
"'. c #CF8D99",
"]. c #C4AA8C",
"[. c #C7A986",
"{. c #C6AD93",
"}. c #CDB393",
"|. c #CDB69B",
" X c #D3B799",
".X c #CFB5AF",
"XX c #E5AFB7",
"oX c #CBC7BF",
"OX c #A9B9C1",
"+X c #B0BEC5",
"@X c #AABDD6",
"#X c #9FB2C5",
"$X c #D3B9C1",
"%X c #C6B9CD",
"&X c #B7C3C9",
"*X c #AFC1DA",
"=X c #B6C8E4",
"-X c #C8C8C7",
";X c #D8CAC7",
":X c #C5CCD4",
">X c #D8CBD7",
",X c #CAD4D9",
"<X c #DDDDDC",
"1X c #D5D6D6",
"2X c #D7D3CB",
"3X c #E8DCD7",
"4X c #E6E3DD",
"5X c #F2E9DE",
"6X c #CAD4EA",
"7X c #D9DBE3",
"8X c #CCDDFD",
"9X c #C5D6F8",
"0X c #D1DFFC",
"qX c #D7DFF0",
"wX c #C0CCE1",
"eX c #DDE2E5",
"rX c #DAE6FD",
"tX c #DEE8FD",
"yX c #D7E2F6",
"uX c #E3E3E3",
"iX c #EAEBEC",
"pX c #E7E8E8",
"aX c #F2EDE9",
"sX c #F3F1ED",
"dX c #E3EBFD",
"fX c #EAEEF4",
"gX c #EDF1F3",
"hX c #ECF3FD",
"jX c #EDFBFE",
"kX c #F4F4F4",
"lX c #F2F6FC",
"zX c #F4FCFE",
"xX c white",
"cX c #FEFEFE",
"vX c #FCFDFD",
"bX c #FFFFFF",
"nX c #FBF7F6",
"mX c #F8DFE1",
/* pixels */
"xXxXxXxXxXxXxXxXxXxXxXxXxXxXxXxXxXxXxXxXxXxXxXxXxXxXxXxXxXxXxXxXxXxXcXcXcXxXxXxXcXxXxXxXxXxXxXxXxXxXxXxXxXxXxXxXxXxXxXxXxXxXxXxX",
"xXxXxXxXxXxXxXxXxXxXxXxXxXxXxXxXxXxXxXxXxXxXxXxXxXxXxXxXxXxXxXxXxXxXcXcXxXxXxXxXcXcXxXxXxXxXxXxXxXxXxXxXxXxXxXxXxXxXxXxXxXxXxXxX",
"xXxXxXxXxXxXxXxXxXxXxXxXxXxXxXxXxXxXxXxXxXxXxXxXvX7X&XxXxXxXxXxXxXxXxXcXxXxXxXxXcXcXcXcXxXxXxXxXxXxXxXxXxXxXxXxXxXxXxXgX(.xXxXxX",
"xXxXxXxXxXxXxXxXxXxXxXxXxXxXxXxXxXxXxXxXxXxXxXxX,X:XeX+XxXxXxXxXxXnX3XXX'.t.t.^.aXcXcXvXxXxXxXxXxXxXxXxXxXxXxXxXxXxXuXOXgX(.xXxX",
"xXxXxXxXxXxXxXxXxXxXxXxXxXxXxXxXxXxXxXxXxXxXxXxXgX,X&XfXvXxXxXkXXXt.X.| | q w ..*.3XnXvXxXxXxXxXxXxXxXxXxXxXxXxXxXxXlX7XOXiXvXxX",
"xXxXxXxXxXxXxXdXhXxXxXxXxXxXxXxXxXxXxXxXxXxXxXxXxXgXiXxXxXxX$X*.| | .. . . .o... .$._.vXxXxXxXxXxXxXxXxXxXxXxXxXxXxXxXvXpXxXxXxX",
"xXxXxXxXxXdXzXrXtXxXxXxXxXxXxXxXxXxXxXxXxXxXxXxXxXxXxXxXxX$XO...O.@.o. ... . . . . .+.XXxXxXxXxXxXxXxXxXxXxXxXxXxXxXxXxXxXxXxXxX",
"xXxXxXxXxX0XlXrXtXxXxXxXxXxXxXxXxXxXxXxXxXxXxXxXxXxXxXxX;X=.| | w o.o.O.o.o.o..... . .O.XXxXxXxXxXxXxXxXxXxXxXxXxXxXxXxXxXxXxXxX",
"xXxXxXxXxX8XhXhXlXxXxXxXxXxXxXxXxXxXxXxXxXxXxXxXcXcXaX>.;.O.& &  .o.O.o.+.o... . .#.#.#.$.mXxXxXxXxXxXxXxXxXxXxXxXxXxXxXxXxXxXxX",
"xXxXxXxXxXhXlXxXxXxXxXxXxXxXxXxXxXxXxXxXxXxXxXxXcXcX>.;.=.q & O.o.o...%.2..Xe.^.%XqXqXqX>X$XuXxXxXxXxXxXxXxXxXxXxXxXxXxXxXxXxXxX",
"xXxXxXxXxXxXxXxXxXxXxXxXxXxXxXxXxXxXxXxXxXxXxXxXcX.X;.=.O.9 | ....&.e.%X:XzXjXjXzXjXhXhXjXjXvXpXxXxXxXxXxXxXxXxXxXxXxXxXxXxXxXhX",
"xXxXxXxXxXxXxXxXxXxXxXxXxXxXxXxXxXxXxXxXxXxXxXxXnXy.-.@. .9  .&.2.>XfXlXvXzXzXzXjXzXzXzXzXzXjXzXkXxXxXxXxXxXxXxXxXxXxXxXxXvXhXyX",
"xXxXxXxXxXxXxXxXxXxXxXxXxXxXxXxXxXxXxXxXxXxXxXxXvX>.-.o.w 9 %.>XfXcXcXvXvXzXzXzXzXzXzXjXzXzXjXjXgXvXxXxXxXxXxXxXxXxXxXxXxXvX8XzX",
"xXxXxXxXxXxXxXxXxXxXxXxXxXxXxXxXxXxXxXxXxXxXxXxXnX-.=...9 &.y.jXvXcXzXxXzXzXzXzXjXzXzXzXzXzXzXjXzXpXxXxXxXxXxXxXxXxXxXxXxXxXxX0X",
"xXxXxXxXlXxXxXxXxXxXxXxXxXxXxXxXxXxXxXxXxXxXxXxX$X=.=.o.r.'.7XzXnXzXvXzXzXvXzXzXzXzXzXzXzXvXzXvXzXgXvXvXxXxXxXxXxXxXxXxXxXxXxXxX",
"xXxXxXnX(.7XvXxXxXxXxXxXxXxXxXxXxXxXxXxXxXxXxXxXe.@.@.*.iX<XlXvXvXzXzXvXzXzXzXzXzXvXvXzXpX<XuXpXvXzXvXxXxXxXxXxXxXxXxXxXxXxXxXxX",
"xXxXxX(.gX+X7XxXxXxXxXxXxXxXxXxXxXxXxXxXxXxXxXxX>.O.*.gXvXlXvXvXvXzXzXzXlXlXnXvXnXoXR.E.c.>X4XvXeXxXxXxXxXxXxXxXxXxXxXxXxXxXxXxX",
"xXxXxXnX(.eXvXxXxXxXxXxXxXxXxXxXxXxXxXxXxXkX1X1X=.@..XzXiXxXzXzXlXzXlXlXlXvX<Xc.8.1.1.r.Y 1._ uXnXkXxXxXxXxXxXxXxXxXxXxXxXxXxXxX",
"xXxXxXxXkXvXxXxXxXxXxXxXxXxXxXxXxXxXxXxXxXiXzXhX'.%.>XxXuXvXzXzXzXzXzXvXaXF.w.H G D g D D _ { %XiXxXxXxXxXxXxXxXxXxXxXxXxXxXxXxX",
"xXxXxXxXxXxXxXxXxXxXxXxXxXxXxXxXxXxXxXxXkXlXlXhXhX>XeXuX<XzXzXlXzXkX).H..X5.b 4 e m g Z S ( 5./ .XlXxXxXxXxXxXxXxXxXxXxXxXxXxXxX",
"xXxXxXxXxXxXxXxXxXxXxXxXxXxXxXxXxXxXxXxXkXxXzXzXjXgXfXgX3XzXlXiXP.d.S.G.a.7.Y a z G Y D D G G F V ,XcXxXxXxXxXxXxXxXxXxXxXxXxXxX",
"rXxXxXxXxXxXxXxXxXxXxXxXxXxXxXxXxXxXxXxXnXxXvXzXjXhXgXuX~.xX3XP.K.D.G.G.a.5.r.8.7.5.1.1.Y G G H ^ &XeXvXxXxXxXxXxXxXxXxXxXxXxXxX",
"9XxXxXdXzXxXxXxXxXxXxXxXxXxXxXxXxXxXxXxXxXiXxXzXzXlXkX~.L.!.P.R.K.D.D.F.F.q.7.9.9.7.8.8.3.W G H / Z.%XeXxXxXxXhXhXxXxXxXxXxXxXxX",
"0X:XtX8XlXxXxXxXxXxXxXxXxXxXxXxXxXxXxXxXvX6XpXgXvXlX2Xb.T.L.L.P.D.F.F.F.G.D.q.q.q.q.S.q.8.8.E F [ Z.[ _.iXxXxXtXrXxXxXxXxXxXxXxX",
"@X*X8X@XgXxXxXxXxXxXxXxXxXxXxXxXxXxXxXsX5X XoX}.T.U.M.x.L.b.K.P.K.G.G.F.g.q.q.q.6.q.q.q.q.5./ H [ [ C h -XcXcXdXrXzXhXcXcXxXxXxX",
"&X=X*X&XkXxXxXxXxXxXxXxXxXxXxXxXxXxXnX3X X.X X[.W.M.x.z.b.b.P.P.R.P.G.F.q.q.5.q.q.5.3.0.q.0._ / ~ h h : _.cXcXtXtXhX0XcXcXcXxXxX",
"xX&X&XvXxXxXxXxXxXxXxXxXxXxXxXxXcXvX5X[. X|.{.].Y.M.x.l.b.P.P.R.R.R.F.g.d.q.0.q.q.0.3.6.F.F.0./ C 4 < + -XxXxXhXhXhX0XcXxXxXxXxX",
"xXxXvXvXxXxXxXxXxXxXxXxXxXxXxXxXcX5X[. X{.{.].].Y.v.l.l.b.P.I.R.R.G.D.F.a.0.q.w.0.w.w.A.H.F.w.{ ~ 4 > $ 7XxXxXxXcXhXdXcXxXxXxXxX",
"xXxXxXxXxXxXxXxXxXxXxXxXxXxXcXxXaXC.}.}.].Q.Y.U.M.x.l.z.b.c.D.R.R.D.h.S.0.' ' 0.5.] w.F.F.h.a.Z.} h > 8 sXxXxXxXxXxXxXxXxXxXxXxX",
"xXxXxXxXxXxXxXxXxXxXxXxXxXxXcXkX5XC.[.[.Y.v.l.M.Y.M.x.x.k.k.K.P.I.G.j.a.` E ( ( I ( w.0.{ 0.w.{ } l > _.cXxXxXxXxXxXxXxXxXxXxXxX",
"xXxXxXxXxXxXxXxXxXxXxXxXxXxXzX,XC.C.}.[.x.l.l.n.U.U.n.b.c.E.j.j.G.G.j.7.5.R I F m ^ ( I I / P B l 8 } fXxXxXxXxXxXxXxXxXxXxXxXxX",
"xXxXxXxXxXxXxXxXxXxXxXxXxXlX6XaX[.[.[.B.l.l.l.n.U.T.T.L.K.I.K.j.g.f.j.6.) ( I A c M b m F d 3 8 7 ).wXlXxXxXxXxXxXxXxXxXxXxXxXxX",
"xXxXxXxXxXxXxXxXxXxXxXxXvXvX5X}.[.[.B.n.z.x.x.M.U.T.P.P.P.L.K.d.p.d.p.` ` ) R A d p e r e p oXuXiX8XlXxXxXxXxXxXxXxXxXxXxXxXxXxX",
"xXxXxXxXxXxXxXxXxXxXxXxXxXsX}.}.].[.U.x.x.v.b.L.n.L.I.I.L.j.j.d.p.d.7.W W W L A v p 3 2 - ).cXxXxXxXxXxXxXxXxXxXxXxXxXxXxXxXxXxX",
"xXxXxXxXxXxXxXxXxXxXxXxXvXaX}.{.].Y.Y.x.x.M.n.v.c.j.D.L.D.g.h.h.g.p.,.Q Y S S A g a t t ; 4XcXxXxXxXxXxXxXxXxXxXxXxXxXxXxXxXxXxX",
"xXxXxXxXxXxXxXxXxXxXxXxXaX}.}.{.].T.M.M.Y.U.U.b.k.d.j.K.D.h.D.j.d.,.T Q S Z Z n d f t t u aXcXxXxXxXxXxXxXxXxXxXxXxXxXxXxXxXxXxX",
"xXxXxXxXxXxXxXxXxXxXxXvX5X}.W.C.Y.U.Y.Y.Y.U.T.K.c.j.g.j.F.d.g.d.8.) Y Y Y S S v f f f f D sXxXxXxXxXxXxXxXxXxXxXxXvXxXkX+XxXxXxX",
"xXxXxXxXxXxXxXxXxXxXxXnX].].W.W.U.Y.B.U.T.T.K.K.E.h.a.q.0.q.q.3.) ) T Y Y Q Y Y S Z Z Z ! pXxXxXxXxXxXxXxXxXxXxXxXvXiX&XeX&XxXxX",
"xXxXxXxXxXxXxXxXxXxXxXsXC.W.V.V.N.N.N.Y.n.L.K.E.k.q.a.6.6.' E E ) E ) W R T Y Y S S K L ,.4XcXcXxXxXxXxXxXxXxXxXxXxXgX,X:X,XxXxX",
"xXxXxXxXxXxXxXhXhXxXxXsXB.N.B.m.Y.Y.N.M.b.c.j.g.q.0.0.6.] ( I G Y Y G T Y T Y G L Y L R 3.m.cXxXxXxXxXxXxXxXxXxXxXxXxXvX,XxXxXxX",
"xXxXxXxXxXhXvXrXtXcXcXaXN.M.v.B.Y.Y.v.z.z.i.p.` 6.5.( ` ( ] ( I G F D S L Y Y I L Y K L ) m.vXxXxXxXxXxXxXxXxXxXxXxXxXxXxXxXxXxX",
"xXxXxXxXxX8XhXrXdXcXxXaXn.m.m.N.M.M.x.f.i.4.3.` ` ` ( ` ` 6.] U G m Z Z S L L Y S Z A L T f.vXcXxXxXxXxXxXxXxXxXxXxXxXxXxXxXxXxX",
"xXxXxXxXxX0XhXhXhXcXvXaXz.f.z.l.z.z.l.i.<.,.Q ) W ( ' ' 0.' _ I G m b v n A S F n d P L T f.nXxXxXxXxXxXxXxXxXxXxXxXxXxXxXxXxXxX",
"xXxXxXxXxXtXhXxXcXcXcXpXf.i.k.i.f.m.i.<.1.! K W ` ] ' p.0._ ( E G m b v d a n Z n M ( E T i.cXxXxXxXxXxXxXxXxXxXxXxXxXxXxXxXxXxX",
"xXxXxXxXxXxXxXxXxXxXxXpXi.i.i.i.i.i.i.<.<.J g E ( ] 0.a.' ] L g b m v d f r d d a m ' ' T i.nXxXxXxXxXxXxXxXxXxXxXxXxXxXxXxXxXlX",
"xXxXxXxXxXxXxXxXxXxXxX4Xi.p.T i.i.i.<.4.T D K ) 6.0.0.{ ( U n f v Z c f f p a a a c ( p.` 2XcXxXxXxXxXxXxXxXxXxXxXxXxXxXxXvXvX8X",
"xXxXxXxXxXxXxXxXxXxXvX4X3.d.3.W ` i.i.,.! J ! ` p.{ ] / K c u u v f r f c i p p u d ( ` W <XcXcXxXxXxXxXxXxXxXxXxXxXxXxXvXvX8XvX",
"xXxXxXxXxXxXxXxXxXxXxXsXp.d.` ! Q ! ,.T J K Q ` ' ( / ^ L x y u f r t r i r i e r B ( E K pXcXcXxXxXxXxXxXxXxXxXxXxXxXxXxXxXvX8X",
"xXxXxXxXvXxXxXxXxXxXxXnXp.7.W Q K K K K K n A ] u.U ( ] ^ M y y 3 3 2 y y 6 3 3 x P ] L _.kXxXxXxXxXxXxXxXxXxXxXxXxXxXxXxXxXxXvX",
"xXxXxXxXOXiXxXxXxXxXxXvX-XT E L K Z K K A d a P ] U ^ P B a 2 1 1 1 2 3 2 2 1 y M P ] m -XxXxXxXxXxXxXxXxXxXxXxXxXxXxXxXxXxXxXxX",
"xXxXxXOXfX&XeXxXxXxXxXxX<X! ! m d n n K n d a P u./ ^ P B y , * - , , 1 * * 2 j B ^ / H.sXxXxXxXxXxXxXxXxXxXxXxXxXxXxXxXxXxXxXxX",
"xXxXxXiX+X,XkXxXxXxXxXxXsXK Q n n n n d d d a K U / P P M y * # = = * # O = 7 z V H B 2XxXxXxXxXxXxXxXxXxXxXxXxXxXxXxXxXxXxXxXxX",
"xXxXxXxXeXzXxXxXxXxXxXxXnX_.Q A d d d u d x a M B P } P V y % % * * % O % < y z N M H.nXxXxXxXxXxXxXxXxXxXxXxXxXxXxXxXxXxXxXxXxX",
"xXxXxXxXxXxXxXxXxXxXxXxXvXoXd A d u y s a c a s x B B B M , * * * * * * * < y M c y _.xXxXxXxXxXxXxXxXxXxXxXxXxXxXxXxXxXxXxXxXxX",
"xXxXxXxXxXxXxXxXxXxXxXxXvXsXH.a p y 2 y y a i 5 a B M M z 2 * * * * * % * > k V j u.uXvXxXxXxXxXxXxXxXxXxXxXxXxXxXxXxXxXxXxXxXxX",
"dXxXxXxXxXxXxXxXxXxXxXxXxXzX<Xh.3 2 , > , 2 5 1 x B M x z y * @ * # % * * - x N 7 !.xXxXxXxXxXxXxXxXxXxXxXxXxXxXxXxXxXxXxXxXxXxX",
"9XxXvXhXvXxXxXxXxXxXxXxXxXxXxX-X{ > * % # > > < x P B C z , % O O O @ # % > j C y ).xXxXxXxXxXxXxXxXxXxXxXxXxXlXhXxXxXxXxXxXxXxX",
"0X7XhX9XlXxXxXxXxXxXxXxXxXxXxXxX1X> o + X o + @ x / } C x = O O % O @ @ X @ y N l ).xXxXxXxXxXxXxXxXxXxXxXxXxXtXrXxXxXxXxXxXxXxX",
"=X#X9X=XhXxXxXxXxXxXxXxXxXxXxXxXgX5 . + . > V > , M V l 5 % X X o o X X . . 4 C l ).xXxXxXxXxXxXxXxXxXxXxXxXxXdXrXvXlXxXxXxXxXxX",
"(.9X6X(.gXxXxXxXxXxXxXxXxXxXxXxX1X+ . . . J.hXqX`.5 z l < . . . . . . . X y j j 7 N lXxXxXxXxXxXxXxXxXxXxXxXxXdXtXhX0XxXxXxXxXxX",
"xX(./.vXxXxXxXxXxXxXxXxXxXxXxXxXkX-X_.).<XyXlXdXOX8 l l z J.A.{ / V N } H.-Xu.4 h h 7XxXxXxXxXxXxXxXxXxXxXxXxXdXdXhXyXxXxXxXxXxX",
"xXxXxXxXxXxXxXxXxXxXxXxXxXxXxXxXxXxXvXvXxXxXxXqX/.h j 5 V gXxXzXiX<X1XpXzXcX-Xl : 4 H.iXxXxXxXxXxXxXxXxXxXxXxXxXxXhXrXxXxXxXxXxX",
"xXxXxXxXxXxXxXxXxXxXxXxXxXxXxXxXxXxXxXxXxXxXxX1Xl l j 8 y ).kXxXvXvXvXxXvXxXgXu.$ j x V 1XlXxXxXxXxXxXxXxXxXxXxXxXxXxXxXxXxXxXxX",
"                                                [ ^ { N } A.1XvXnXlXnXkXnXvXxX)./ J._._.J.                                      "
};
