/* XPM */
static char *_e769bf990674dcb8db41f35a85ad57eYVP2iaVxNwOdHT42[] = {
/* columns rows colors chars-per-pixel */
"64 64 239 2 ",
"   c None",
".  c #010202",
"X  c #0A0D0C",
"o  c #0E110E",
"O  c #14140E",
"+  c #0E1113",
"@  c #141611",
"#  c #1A1B15",
"$  c #1D1E19",
"%  c #171814",
"&  c #310102",
"*  c #1F211A",
"=  c #22231C",
"-  c #2C291C",
";  c #3C321F",
":  c #1A1C24",
">  c #232524",
",  c #2A2B25",
"<  c #272A27",
"1  c #322F26",
"2  c #34342C",
"3  c #3C372D",
"4  c #333431",
"5  c #3B3B34",
"6  c #393A39",
"7  c #2C2F33",
"8  c #490101",
"9  c #520000",
"0  c #780001",
"q  c #6C0102",
"w  c #433D33",
"e  c #483F36",
"r  c #443C2D",
"t  c #3F413D",
"y  c #4A4135",
"u  c #44423A",
"i  c #4C453A",
"p  c #4D493D",
"a  c #454238",
"s  c #534B3D",
"d  c #514639",
"f  c #674D3B",
"g  c #393B43",
"h  c #3D4147",
"j  c #434343",
"k  c #43444A",
"l  c #4B4B4C",
"z  c #494A46",
"x  c #544D42",
"c  c #5A4F42",
"v  c #584E49",
"b  c #5C5244",
"n  c #5C544A",
"m  c #55524B",
"M  c #535354",
"N  c #5C5B56",
"B  c #585758",
"V  c #4E5156",
"C  c #625445",
"Z  c #645B4C",
"A  c #6B5D4D",
"S  c #665748",
"D  c #645C54",
"F  c #6B5E52",
"G  c #625E5B",
"H  c #705E48",
"J  c #6C634D",
"K  c #6C6254",
"L  c #64625C",
"P  c #6D645B",
"I  c #6E685E",
"U  c #736455",
"Y  c #7C6B55",
"T  c #72665A",
"R  c #75695B",
"E  c #7A6C5C",
"W  c #756855",
"Q  c #766853",
"!  c #5B5E62",
"~  c #656463",
"^  c #6A6966",
"/  c #746C63",
"(  c #7B6E62",
")  c #746E69",
"_  c #7C7266",
"`  c #7D746B",
"'  c #777269",
"]  c #686B73",
"[  c #7B7876",
"{  c #606163",
"}  c #870202",
"|  c #940101",
" . c #9C0101",
".. c #9F1418",
"X. c #A50101",
"o. c #AB0102",
"O. c #A8050B",
"+. c #BA0101",
"@. c #B10D17",
"#. c #B41821",
"$. c #9B292F",
"%. c #B32D33",
"&. c #C50102",
"*. c #D80107",
"=. c #E20511",
"-. c #D92E3E",
";. c #DC394B",
":. c #83735D",
">. c #8B775D",
",. c #846D5B",
"<. c #B25064",
"1. c #837463",
"2. c #8C7C65",
"3. c #84766A",
"4. c #84796E",
"5. c #8B7B6B",
"6. c #887664",
"7. c #907E68",
"8. c #857C72",
"9. c #8A7E73",
"0. c #847E79",
"q. c #B16578",
"w. c #A3545B",
"e. c #C94855",
"r. c #CC5969",
"t. c #7E807F",
"y. c #97846B",
"u. c #8E8175",
"i. c #8C837A",
"p. c #84837E",
"a. c #938475",
"s. c #9D8B73",
"d. c #93857A",
"f. c #95897D",
"g. c #9A8A7B",
"h. c #998674",
"j. c #A4896E",
"k. c #A58D73",
"l. c #AA8F73",
"z. c #A18E7D",
"x. c #AC9276",
"c. c #A5917C",
"v. c #AD957B",
"b. c #A9957B",
"n. c #B2967B",
"m. c #B59A7D",
"M. c #B69979",
"N. c #BBA07F",
"B. c #C4A57E",
"V. c #757A85",
"C. c #8A8A86",
"Z. c #958B82",
"A. c #9B8E83",
"S. c #978887",
"D. c #9C9288",
"F. c #9A9897",
"G. c #878D91",
"H. c #A39384",
"J. c #AB9985",
"K. c #AA9A8B",
"L. c #A69687",
"P. c #B59C83",
"I. c #B99E82",
"U. c #B29D8A",
"Y. c #AB9D90",
"T. c #A08F80",
"R. c #BCA285",
"E. c #BFA48B",
"W. c #ABA197",
"Q. c #B2A494",
"!. c #9DABB6",
"~. c #A9AAAA",
"^. c #ABAEB3",
"/. c #A5B5BD",
"(. c #B9B9B8",
"). c #B4B1A7",
"_. c #B790A4",
"`. c #C9939E",
"'. c #C4AA8C",
"]. c #C7A986",
"[. c #C6AD93",
"{. c #CDB393",
"}. c #CDB69B",
"|. c #D3B799",
" X c #D0B4B0",
".X c #E5ACB4",
"XX c #CBC7BF",
"oX c #A9B9C1",
"OX c #B1BEC5",
"+X c #AABDD6",
"@X c #9FB2C5",
"#X c #D3B9C1",
"$X c #C6B9CD",
"%X c #B8C3C9",
"&X c #B7C5D5",
"*X c #B6C8E4",
"=X c #C8C8C7",
"-X c #D8CAC7",
";X c #C6CCD7",
":X c #D8CBD7",
">X c #CCD5DA",
",X c #DDDDDC",
"<X c #D5D5D6",
"1X c #D7D3CB",
"2X c #E8DCD7",
"3X c #E5E2DD",
"4X c #F2E9DE",
"5X c #C5D1E9",
"6X c #D9DCE3",
"7X c #CCDDFD",
"8X c #C5D6F8",
"9X c #D1DFFC",
"0X c #D2DDF6",
"qX c #DDE2E4",
"wX c #DBE6FD",
"eX c #DEE8FD",
"rX c #D5E2F9",
"tX c #E3E3E3",
"yX c #EDE9E5",
"uX c #EAEBEC",
"iX c #E5E7E9",
"pX c #F2EDE8",
"aX c #F3F1ED",
"sX c #E3EBFD",
"dX c #EAEDF5",
"fX c #EDF1F3",
"gX c #ECF2FD",
"hX c #EDFBFE",
"jX c #F4F4F4",
"kX c #F2F6FC",
"lX c #F4FCFE",
"zX c #FAFEFE",
"xX c white",
"cX c #FEFEFE",
"vX c #FCFDFD",
"bX c #FFFFFF",
"nX c #FBF7F6",
"mX c #EFF0EC",
"MX c #F8DFE1",
/* pixels */
"xXxXxXxXxXxXxXxXxXxXxXxXxXxXxXxXxXxXxXxXxXxXxXxXxXxXxXxXvXxXxXxXxXxXxXxXxXxXxXxXxXxXxXxXxXxXxXxXxXxXxXxXxXxXxXxXxXxXxXxXxXxXxXxX",
"xXxXxXxXxXxXxXxXxXxXxXxXxXxXxXxXxXxXxXxXxXxXxXxXxXxXxXxXvXvXxXxXxXxXxXxXxXxXxXxXxXxXxXxXxXxXxXxXxXxXxXxXxXxXxXxXxXxXxXxXxXxXxXxX",
"xXxXxXxXxXxXxXxXxXxXxXxXxXxXxXxXxXxXxXxXxXxXxXxXlX>XOXxXvXvXvXvXxXxXxXxXxXxXxXxXxXxXxXxXxXxXxXxXxXxXxXxXxXxXxXxXxXxXxXfX/.vXxXxX",
"xXxXxXxXxXxXxXxXxXxXxXxXxXxXxXxXxXxXxXxXxXxXxXaXS.;.e.q..XMXnXvXxXxXxXxXxXxXxXxXxXxXxXxXxXxXxXxXxXxXxXxXxXxXxXxXxXxXiXoXjX/.xXxX",
"xXxXxXxXxXxXxXxXxXxXxXxXxXxXxXxXxXxXxXxXxXnX2X%. .q 0 0 } ..e..XjXxXxXxXxXxXxXxXxXxXxXxXxXxXxXxXxXxXxXxXxXxXxXxXxXxXkX6XoXuXzXxX",
"xXxXxXxXxXxXxXsXgXxXxXxXxXxXxXxXxXxXxXxXxX X@.|  .X.| | |  .0 } %.#XxXxXxXxXxXxXxXgXsXvXxXxXxXxXxXxXxXxXxXxXxXxXxXxXxXzXiXxXxXxX",
"xXxXxXxXxXsXlXwXeXxXxXxXxXxXxXxXxXxXxXxX XO.| | | | | | | X.+.o. .o.#XxXxXxXxXgXgXgX9XxXxXxXxXxXxXxXxXxXxXxXxXxXxXxXxXxXxXxXxXxX",
"xXxXxXxXxX9XkXwXeXxXxXxXxXxXxXxXxXxXxX.XO.X.|  . .X.o.X.o.o.X.q } } *.#XxXxXvXwXeXgX9XxXxXxXxXxXxXxXxXxXxXxXxXxXxXxXxXxXxXxXxXxX",
"xXxXxXxXxX7XgXgXkXxXxXxXxXxXxXxXxXxXMX@.@.@.O.| | O.X.X.X.o.o.| & & o.=.;.yXvXsXwXkXgXvXxXxXxXxXxXxXxXxXxXxXxXxXxXxXxXxXxXxXxXxX",
"xXxXxXxXxXgXkXxXxXxXxXxXxXxXxXxXxXiX#X:X6X0X0X$X_.q. X<.#. .X.X.o.& 0 +.=.;.vXgXgXvXxXvXxXxXxXxXxXxXxXxXxXxXxXxXxXxXxXxXxXxXxXxX",
"xXxXxXxXxXxXxXxXxXxXxXxXxXxXxXxXiXzXhXhXgXhXhXlXhXgXlX;X$Xq.$. . .} 9 o.&.=. XvXxXxXxXxXxXxXxXxXxXxXxXxXxXxXxXxXxXxXxXxXxXxXxXgX",
"xXxXxXxXxXxXxXxXxXxXxXxXxXxXxXjXlXhXhXlXlXlXlXlXlXlXlXlXlXuX:X<.$.| 8 | +.*.r.vXxXxXxXxXxXxXxXxXxXxXxXxXxXxXxXxXxXxXxXxXxXxXgXrX",
"xXxXxXxXxXxXxXxXxXxXxXxXxXxXvXdXhXhXlXlXhXhXlXlXlXhXlXxXzXvXvXdX:X@.8 q O.&.;.nXxXxXxXxXxXxXxXxXxXxXxXxXxXxXxXxXxXxXxXxXxXzX9XkX",
"xXxXxXxXxXxXxXxXxXxXxXxXxXxXiXlXlXlXlXlXlXlXlXlXlXlXlXlXvXzXzXvXkXr.$.8  .&.*.xXxXxXxXxXxXxXxXxXxXxXxXxXxXxXxXxXxXxXxXxXxXxXxX9X",
"xXxXxXxXjXzXxXxXxXxXxXxXxXzXfXhXzXzXzXzXlXlXlXlXlXlXlXlXzXzXkXzXzX,X`.w.o.&.&..XxXvXxXxXxXxXxXxXxXxXxXxXxXxXxXxXxXxXxXxXxXxXxXxX",
"xXxXxXnX/.qXxXxXxXxXxXxXxXxXzXzXtXtX,XiXzXzXzXlXzXzXlXlXvXkXzXvXzXkX6XyX%.O.&.6.zXvXxXxXxXxXxXxXxXxXxXxXxXxXxXxXxXxXxXxXxXxXxXxX",
"xXxXxX/.jXOX6XzXxXxXxXxXxXxXxXtXxX3X:XT.T.Y.-XjXxXzXzXlXlXlXlXlXzXzXkXxXaX$.&.%.&XxXxXxXxXxXxXxXxXxXxXxXxXxXxXxXxXxXxXxXxXxXxXxX",
"xXxXxXnX/.qXzXxXxXxXxXxXxXxXjXnX,X) ,.U ,.,.,.6.g.,XzXkXkXkXlXlXlXzXxXuXxX X+.&.<X<XjXxXxXxXxXxXxXxXxXxXxXxXxXxXxXxXxXxXxXxXxXxX",
"xXxXxXxXjXzXxXxXxXxXxXxXxXxXxXuX=X[ ) S S f C F P [ S.dXnXkXlXkXlXlXzXqXxX:X#.`.lXkXuXxXxXxXxXxXxXxXxXxXxXxXxXxXxXxXxXxXxXxXxXxX",
"xXxXxXxXxXxXxXxXxXxXxXxXxXxXnX(.) [ / A C C v w 7 v 4. XY.(.jXlXkXlXlX,XtXqX:XgXgXkXjXjXxXxXxXxXxXxXxXxXxXxXxXxXxXxXxXxXxXxXxXxX",
"xXxXxXxXxXxXxXxXxXxXxXxXvXvX:X! B F F S S ,.C j z U 7.9.D.A.i.Y.uXkXlX3XfXdXfXhXlXlXxXjXxXxXxXxXxXxXxXxXxXxXxXxXxXxXxXxXxXxXxXxX",
"wXxXxXxXxXxXxXxXxXxXxXxXxX6XOX! P F F U ,.,.6.7.6.,.3.9.D.A.A.H.K.2XvXQ.tXfXgXhXlXlXxXxXxXxXxXxXxXxXxXxXxXxXxXxXxXxXxXxXxXxXxXxX",
"8XxXxXsXlXxXxXxXxXxXxXxX6X$XV.! G F ,.,.6.6.5.5.5.5.9.Z.D.S.f.H.Y.K.Q.v.Q.gXlXlXlXxXaXxXxXxXxXxXxXxXxXxXxXxXxXgXgXxXxXxXxXxXxXxX",
"7X;XsX7XkXxXxXxXxXxXxXmX^.] V.] D T 6.6.9.S.d.9.5.9.S.D.Z.Z.Z.D.K.J.K.J.c.1XnXlXfXmXaXnXxXxXxXxXxXxXxXxXxXxXxXeXrXxXxXxXxXxXxXxX",
"+X&X7X+XfXxXxXxXxXxXxX=Xg V ] V.~ T 3.9.9.9.9.9.8.9.9.Z.f.D.D.D.K.H.H.b.l.n.n.U.[. X|.4X4XvXxXxXxXxXxXxXxXxXvXsXeXlXgXvXxXxXxXxX",
"%X*X&X%XfXxXxXxXxXxXxX^.: g g ! ^ ) 8.9.4.( 5.9.8.3.5.9.f.D.L.Y.Y.J.c.c.k.x.n.R.'. XXX{.2XnXvXvXxXxXxXxXxXxXvXeXeXkX9XvXxXxXxXxX",
"xX%XoXzXxXxXxXxXxXxXxX=X+ < 7 V ^ 0.S.S.9.` 4.9.0.9.9.d.d.D.K.W.Q.K.K.c.k.j.n.I.'.[.}.|.B.4XnXvXxXxXxXxXxXxXxXgXgXgX9XvXxXxXxXxX",
"xXxXxXxXxXxXxXxXxXxXxX,X# > 7 ! [ p.S.S.C.i.8.4.9.9.0.9.f.A.D.Y.K.L.K.c.j.j.v.I.'.'.[.{.|.{.4XvXxXxXxXxXxXxXxXxXvXgXsXvXxXxXxXxX",
"xXxXxXxXxXxXxXxXxXxXxXjX4 > 6 ~ [ 0.C.S.Z.0.` ` 4.` ( 8.Z.Z.A.Y.K.T.z.c.l.j.l.P.P.I.'.[.{.{.B.pXxXxXxXxXxXxXxXxXxXxXxXxXxXxXxXxX",
"xXxXxXxXxXxXxXxXxXxXxXxX~.> k ~ [ 0.8.` ` 0.^ P / ) / _ a.f.A.L.K.H.g.h.l.l.P.P.x.k.x.I.B.{.B.4XnXkXxXxXxXxXxXxXxXxXxXxXxXxXxXxX",
"xXxXxXxXxXxXxXxXxXxXxXxXuX{ 7 k N G ^ P F / P n D T / 1.9.g.H.D.f.g.T.g.c.n.P.P.n.j.j.l.].].].B.yX7XkXxXxXxXxXxXxXxXxXxXxXxXxXxX",
"xXxXxXxXxXxXxXxXxXxXxXxXxX6X!.6 4 6 s D G v m v Z P / ( 5.f.f.a.f.H.J.H.J.J.U.n.v.j.j.j.n.].].].;XjX7XkXxXxXxXxXxXxXxXxXxXxXxXxX",
"xXxXxXxXxXxXxXxXxXxXxXxXxXxXlX5XyXXXy r e w i c Z T ( ( _ a.g.9.h.H.J.K.K.K.U.P.n.c.k.k.x.m.].'.{.>XkXvXxXxXxXxXxXxXxXxXxXxXxXxX",
"xXxXxXxXxXxXxXxXxXxXxXxXxXxXxXzXxXvX(.- 1 r i c C T E E E 5.a.9.9.g.g.J.J.H.J.J.n.b.b.x.x.n.I.'.{.{.aXvXxXxXxXxXxXxXxXxXxXxXxXxX",
"xXxXxXxXxXxXxXxXxXxXxXxXxXxXxXxXxXxX3X; r w d s C D H U W 6.7.d.f.f.g.T.J.H.g.k.b.b.b.l.x.P.'.'.{.{.pXvXxXxXxXxXxXxXxXxXxXxXxXxX",
"xXxXxXxXxXxXxXxXxXxXxXxXxXxXxXxXxXxXpXd r e d s C C c A U E 6.9.T.A.f.Z.H.f.a.h.c.m.m.U.M.n.P.'.[.{.{.pXxXxXxXxXxXxXxXxXxXxXxXxX",
"xXxXxXxXxXxXxXxXxXxXxXxXxXxXxXxXxXxXaXC d d d s C S A U U U ,.5.a.a.i.S.Z.g.g.g.D.m.U.R.R.m.m.R.I.].{.3XxXxXxXxXxXxXxXjXOXxXxXxX",
"xXxXxXxXxXxXxXxXxXxXxXxXxXxXxXxXxXxXyXU C C C S U U E U U T ( E 1.9.8.9.8.9.g.T.b.L.U.R.m.m.m.N.I.].].'.nXxXxXxXxXxXuX%XqX%XxXxX",
"xXxXxXxXxXxXxXxXxXxXxXxXxXxXxXxXxXxX3X:.F A A A U E U E ( E E / T R ` 8.8.9.9.g.c.D.J.b.U.N.M.m.m.m.].].jXxXxXxXxXxXfX;X;X>XxXxX",
"xXxXxXxXxXxXxXgXgXxXxXxXxXxXxXxXxXvXJ.1.T F U U F U U U Q U U T K K / ' 4.4.9.9.a.f.c.b.b.m.N.N.n.M.M.M.aXvXxXxXxXxXxXzX>XxXxXxX",
"xXxXxXxXxXgXzXwXeXxXxXxXxXxXxXxXxXvXc._ K K U K T T U K A A D D P / ( / ' / 3.8.6.9.9.k.k.M.N.N.m.v.n.m.pXxXxXxXxXxXxXxXxXxXxXxX",
"xXxXxXxXxX7XgXeXeXxXxXxXxXxXxXxXxXnXs.Y K Z S Z K K J Z C C C F ^ ( 4._ ' / ( _ 1.1.7.7.y.k.b.M.m.k.b.v.pXxXxXxXxXxXxXxXxXxXxXxX",
"xXxXxXxXvX9XgXgXgXxXxXxXxXxXxXxXxXvXs.Y P K s b J Z Z C x c C D T ) ` 0.4.' / / E Q 6.,.y.y.k.s.k.k.s.k.yXxXxXxXxXxXxXxXxXxXxXxX",
"xXxXxXxXvXsXgXvXxXxXxXxXxXxXxXxXxXnXy.Y R / n x n b s s c b n D / / / 8.9.4./ ( E A Y ,.y.y.b.s.y.y.h.h.yXxXxXxXxXxXxXxXxXxXxXxX",
"xXxXxXxXvXxXxXxXxXxXxXxXxXxXxXxXvXzXy.Y ` ' n p x s i i s b b b n P ' ` i.8.' / T S H :.>.y.y.y.y.y.a.y.4XxXxXxXxXxXxXxXxXxXxXlX",
"xXxXxXxXxXxXxXxXxXxXxXxXxXxXxXxXxXxX1X_ u./ x p s i y i s s b f x v T / 4.0.0.4.E A H Y y.>.y.y.>.:.a.2.tXxXxXxXxXxXxXxXxXzXlX7X",
"xXxXxXxXxXxXxXxXxXxXxXxXxXxXxXxXxXxX,XW _ R s i i a i p i y d s i e c D / ) 4.8.3.U H Y :.y.1._ :.:.a.2.yXxXxXxXxXxXxXxXxXzX7XvX",
"xXxXxXxXxXxXxXxXxXxXxXxXxXxXxXxXxXxXyXJ R / N a w a a i a 3 y d e w x D ~ ^ ) ` ` W A H Y Y E Y Q E u.u.aXxXxXxXxXxXxXxXxXxXvX7X",
"xXxXxXxXxXxXxXxXxXxXxXxXxXxXxXxXxXxXjX).A ' L j 3 3 5 w t 3 3 t ; t m ~ ' ^ J t./ Z Z J J J J J W E u.u.nXxXxXxXxXxXxXxXxXxXxXzX",
"xXxXxXxXoXiXxXxXxXxXxXxXxXxXxXxXxXxXxX=Xn ' ~ M t 2 1 4 2 2 1 1 1 t t N L ~ I / L p s Z J J S J K Y W XXxXxXxXxXxXxXxXxXxXxXxXxX",
"xXxXxXoXdXOXqXxXxXxXxXxXxXxXxXxXxXxXxXjXF.^ L N z 2 * * < < - - = - t M L ~ I t.L p s Z n S s s n Q Q ,XxXxXxXxXxXxXxXxXxXxXxXxX",
"xXxXxXiX%X>XjXxXxXxXxXxXxXxXxXxXxXxXxXxX1XN L N l 6 = @ * * * * # * t N L L L t.L p s s s s b b Z J J mXxXxXxXxXxXxXxXxXxXxXxXxX",
"xXxXxXxXiXkXxXxXxXxXxXxXxXxXxXxXxXxXxXxXnXF.m B l 6 > * O % * * # # t m L L L L s p s s i i s b Z J ).zXxXxXxXxXxXxXxXxXxXxXxXxX",
"xXxXxXxXxXxXxXxXxXxXxXxXxXxXxXxXxXxXxXxXxX~.5 x M t > * % * % * # * t m N N N z t p m p a w a x Z b XXxXxXxXxXxXxXxXxXxXxXxXxXxX",
"xXxXxXxXxXxXxXxXxXxXxXxXxXxXxXxXxXxXxXxXxXiXC.g B j > * * * * * * * 2 z m m N t , t p t 4 3 a i p D.mXxXxXxXxXxXxXxXxXxXxXxXxXxX",
"sXxXxXxXxXxXxXxXxXxXxXxXxXxXxXxXxXxXxXxXxXxXW.6 M z - * * @ * * % * 2 z h m L p , t t , - , 2 3 C.,XzXxXxXxXxXxXxXxXxXxXxXxXxXxX",
"8XxXxXsXzXxXxXxXxXxXxXxXxXxXxXxXxXxXxXxXxXgX^.j l h > % # @ @ % O O , V M B L z < > = # % = > [ =XxXxXxXxXxXxXkXgXxXxXxXxXxXxXxX",
"9X6XgX7XkXxXxXxXxXxXxXxXxXxXxXxXxXxXxXxXxX9X^.l V h @ o @ @ % @ O O * z M { ~ p @ X o X + + > <XxXxXxXxXxXxXxXeXrXxXxXxXxXxXxXxX",
"*X@X8X*XkXxXxXxXxXxXxXxXxXxXxXxXxXxXxXxXxXrX^.k V 7 . . X X o o o X @ 4 k B M < > B > . + . 4 aXxXxXxXxXxXxXxXsXeXxXkXxXxXxXxXxX",
"/.8X5X/.fXxXxXxXxXxXxXxXxXxXxXxXxXxXxXxXxX0XV g h z 6 . . . . . . . . < k k 2 ~.jXxXF.. . . + >XxXxXxXxXxXxXxXsXeXgX9XxXxXxXxXxX",
"xX/./.nXxXxXxXxXxXxXxXxXxXxXxXxXxXxXxXxXxX*Xh 7 7 G.%XF.~ M M ^ [ G.G.l h k 7 %XxXxXjXtX(.~.=XjXxXxXxXxXxXxXxXsXsXgXrXxXxXxXxXxX",
"xXxXxXxXxXxXxXxXxXxXxXxXxXxXxXxXxXxXxXxXuXF.6 : h =XvXzXuX<X,XuXnXxXjXB 6 h j ~.jXxXxXxXxXxXxXxXxXxXxXxXxXxXxXxXxXgXrXxXxXxXxXxX",
"xXxXxXxXxXxXxXxXxXxXxXxXxXxXxXxXxXxXlX<XB k h * t.aXvXvXxXxXxXxXxXjX(.6 7 g k k <XxXxXxXxXxXxXxXxXxXxXxXxXxXxXxXxXxXxXxXxXxXxXxX",
"xXxXxXxXxXxXxXxXxXxXxXxXxXxXxXxXxXxXlXG.).^.G.^ (.vXzXnXnXkXjXnXzX<XG.~ V [ ~ )XxXxXxXxXxXxXxXxXxXxXxXxXxXxXxXxXxXxXxXxXxXxXxXxX",
};
